<svg width="640" height="672" viewBox="0 0 640 672" fill="none" xmlns="http://www.w3.org/2000/svg">
<path d="M494.014 604.655C492.756 588.159 492.29 571.602 492.619 555.051C492.619 553.677 490.791 553.306 490.647 555.051C489.074 571.64 489.236 588.372 491.128 604.92C491.16 605.341 491.342 605.73 491.636 606.003C491.929 606.276 492.309 606.409 492.691 606.374C493.074 606.339 493.429 606.138 493.677 605.816C493.925 605.494 494.046 605.076 494.014 604.655ZM472.221 598.468C472.308 598.683 472.45 598.865 472.629 598.993C472.809 599.12 473.018 599.188 473.231 599.188C473.445 599.188 473.654 599.12 473.834 598.993C474.013 598.865 474.155 598.683 474.242 598.468C473.568 581.81 472.943 565.099 472.269 548.388C472.269 548.108 472.168 547.839 471.988 547.64C471.807 547.442 471.562 547.331 471.307 547.331C471.052 547.331 470.807 547.442 470.627 547.64C470.446 547.839 470.345 548.108 470.345 548.388C469.703 561.005 469.832 573.655 470.73 586.252C470.762 590.377 471.263 594.481 472.221 598.468ZM598.314 600.583C598.785 608.752 597.955 616.949 595.86 624.804C595.86 626.02 599.083 632.736 601.104 613.434C602.371 600.397 599.898 587.251 594.032 575.834C593.407 574.565 591.771 575.834 592.3 576.945C595.63 584.343 597.669 592.36 598.314 600.583ZM540.006 218.294C539.973 222.274 541.197 226.143 543.47 229.241C546.356 232.097 550.831 220.991 564.253 219.246V204.968C554.888 205.721 546.173 210.511 540.006 218.294ZM666.484 600.266C666.484 589.372 665.618 578.531 665.425 567.638C665.425 566.157 663.357 566.474 663.357 567.955C663.357 579.219 663.357 590.589 663.79 601.906C663.982 609.362 666.628 606.612 666.484 600.266ZM573.249 204.704L573.538 218.982C590.135 219.617 594.946 233.366 596.726 229.083C597.496 227.126 600.623 217.343 598.939 215.65C591.877 208.68 582.74 204.787 573.249 204.704ZM227.974 118.875C225.472 120.356 227.974 126.86 229.946 125.432C231.919 124.005 230.716 117.13 227.974 118.875ZM224.799 102.957C221.431 103.327 221.335 107.135 224.799 107.611C227.308 107.825 229.741 108.656 231.919 110.044C233.218 110.995 234.613 109.092 233.843 107.77C232.852 106.166 231.495 104.877 229.907 104.032C228.32 103.188 226.558 102.817 224.799 102.957ZM216.187 121.572C217.475 125.284 218.488 129.104 219.218 132.995C220.036 137.543 219.988 138.759 219.796 139.023C219.019 139.051 218.246 139.157 217.486 139.341C216.091 139.869 216.091 141.826 218.256 142.937C218.843 143.263 219.506 143.387 220.158 143.292C220.811 143.198 221.422 142.89 221.912 142.408C224.414 139.764 223.356 132.307 218.833 120.25C218.674 119.864 218.382 119.564 218.021 119.415C217.66 119.266 217.26 119.281 216.909 119.457C216.558 119.632 216.285 119.953 216.15 120.35C216.014 120.747 216.028 121.186 216.187 121.572Z" fill="black"/>
<path d="M913.473 758.597H845.207C851.509 721.579 814.081 695.508 790.796 709.151C788.405 696.325 781.836 684.899 772.321 677.021C762.807 669.143 751.003 665.355 739.128 666.369C737.861 657.283 734.735 648.63 729.985 641.064C725.235 633.498 718.985 627.215 711.706 622.688C709.445 593.074 710.455 562.931 710.503 533.687C714.592 534.004 724.407 535.009 722.819 530.725C718.008 517.61 709.782 495.717 703.576 483.131C706.077 483.131 708.916 483.131 708.916 480.328C709.685 429.561 711.177 323.055 711.177 323.055C711.947 260.019 713.871 187.569 673.604 135.691C672.353 134.052 670.621 133.47 669.515 135.163C653.134 160.656 642.363 189.983 638.052 220.833C636.416 190.69 634.251 156.633 630.018 122.947C622.801 65.7806 605.386 27.3877 577.098 4.59528C574.404 2.42709 570.459 -1.06317 568.679 0.311778C524.516 34.6855 511.526 94.6545 508.447 138.917C507.341 157.744 507.004 176.834 507.437 195.766C501.52 171.493 481.218 124.11 473.761 135.533C439.027 190.214 441.961 260.865 444.896 323.214C449.707 441.988 451.15 472.607 451.775 480.592C451.775 483.184 451.775 484.929 458.414 484.136C444.415 524.908 441.528 531.73 442.779 532.893C444.03 534.057 448.985 533.687 451.39 533.528C451.054 551.35 454.902 637.971 454.373 642.572C450.88 647.247 448.072 652.493 446.05 658.12C437.85 660.573 430.239 664.974 423.755 671.014C417.271 677.054 412.072 684.585 408.526 693.075C402.126 692.387 395.673 693.554 389.812 696.46C384.039 626.073 372.204 519.673 357.723 448.81C382.499 452.353 394.334 440.137 400.059 429.561C414.491 401.903 404.869 355.948 386.973 330.511C371.825 295.088 349.61 263.872 321.978 239.183C324.913 233.049 317.168 205.179 297.491 193.704C289.072 188.786 277.863 188.416 272.715 183.127C261.698 171.282 269.107 139.763 246.159 131.514C244.675 118.48 242.213 105.603 238.799 93.0152C267.664 79.3714 266.173 42.4593 249.142 31.9885C233.266 22.2581 224.511 36.0605 214.071 39.9209C199.638 45.2092 187.371 33.7865 168.416 33.7865C132.671 33.7865 124.204 73.3428 122.328 75.2994C120.452 77.2561 119.73 88.4144 103.806 95.2891C86.8719 102.534 65.3192 102.957 56.1305 124.851C48.3369 143.994 63.2987 167.368 53.0034 185.084C46.9899 195.66 25.3891 196.295 9.70574 223.953C-7.08415 253.408 -1.45545 293.388 21.6848 309.993C1.76783 359.174 2.68189 411.475 24.0421 446.695C43.5742 478.794 75.422 490.852 110.012 489.847C108.28 579.43 109.002 668.749 104.672 758.914C89.0368 758.914 73.3534 759.284 58.0067 759.602C57.5729 759.602 57.1569 759.791 56.8501 760.128C56.5434 760.465 56.371 760.923 56.371 761.4C56.371 761.876 56.5434 762.334 56.8501 762.671C57.1569 763.008 57.5729 763.198 58.0067 763.198C71.7177 763.515 87.9303 763.832 104.383 763.832C101.737 816.345 98.1774 869.598 93.7995 921.793C93.3665 927.081 104.624 926.764 109.387 927.081C108.071 934.426 107.57 941.92 107.895 949.398C104.239 952.941 98.899 977.161 99.1877 981.656C99.1877 982.608 99.5725 983.19 100.15 983.295C105.442 984.247 185.398 988.584 189.103 983.771C189.195 983.585 189.244 983.376 189.244 983.163C189.244 982.951 189.195 982.742 189.103 982.555C183.763 966.69 165.048 953.311 149.75 948.975L153.887 928.72C157.062 928.72 163.509 929.249 164.423 927.398C185.927 874.093 205.508 819.042 222.586 763.885H292.536C305.862 810.905 317.625 858.442 327.8 906.404C331.889 925.759 329.05 924.701 340.404 925.283C340.351 932.824 341.175 940.342 342.858 947.652C339.168 957.197 336.941 967.346 336.267 977.69C336.174 977.867 336.125 978.067 336.125 978.272C336.125 978.476 336.174 978.676 336.267 978.853C339.298 983.084 425.652 986.627 431.57 982.767C436.381 979.382 410.017 951.301 386.636 946.119C386.974 939.365 386.829 932.593 386.203 925.865C390.293 925.865 399.722 927.081 399.722 922.639C399.722 872.718 398.182 819.253 394.911 763.991H913.618C914.268 763.97 914.885 763.665 915.331 763.145C915.778 762.624 916.018 761.93 915.999 761.214C915.98 760.499 915.703 759.822 915.229 759.331C914.756 758.84 914.124 758.576 913.473 758.597ZM261.843 664.254C273.822 700.479 280.22 723.007 291.045 759.073H224.029C235.72 721.05 251.884 663.884 262.516 615.814C266.124 599.949 273.389 606.665 270.743 619.568C267.664 635.486 261.698 663.884 261.843 664.254ZM383.221 946.648C374.994 950.773 354.356 950.508 346.321 947.97C345.792 940.408 344.397 932.845 344.301 925.283L382.114 925.759C382.451 932.74 382.836 939.667 383.221 946.648ZM113.813 489.794C154.224 487.573 202.284 467.266 242.503 435.378C243.369 434.69 244.139 434.532 244.379 433.633C244.62 432.734 244.379 431.993 242.936 429.719C254.234 423.905 266.097 419.523 278.296 416.657C283.107 415.705 297.203 412.744 299.752 404.336L310.24 404.018C320.343 427.022 336.411 442.993 354.404 447.964L364.025 510.841C284.55 540.932 212.002 547.33 114.101 532.682C114.438 518.456 114.486 504.02 113.957 489.794H113.813ZM239.905 167.474C233.17 186.67 219.122 187.464 221.383 192.012V193.651C222.298 202.059 224.078 219.352 211.762 231.568C190.979 222.472 178.086 212.001 168.464 196.771C170.485 192.911 168.464 176.041 168.464 175.882C165.481 158.643 151.818 155.152 154.897 139.552C155.33 137.278 155.956 135.956 156.774 135.533C159.468 134.211 166.395 144.417 167.839 132.571C170.1 115.649 174.429 102.587 189.68 97.8275C203.824 93.4382 217.487 100.948 235.768 94.0199C239.905 112.846 247.025 146.903 239.905 167.474ZM212.483 236.222C220.806 233.948 227.926 211.472 226.194 198.886C239.178 200.902 251.965 204.23 264.393 208.828C309.615 226.544 348.871 264.408 375.379 315.81C357.29 296.772 333.621 286.037 312.212 287.518C305.387 275.222 297.544 263.644 288.784 252.932C288.653 252.774 288.493 252.647 288.315 252.56C288.137 252.473 287.944 252.428 287.749 252.428C287.554 252.428 287.362 252.473 287.183 252.56C287.005 252.647 286.846 252.774 286.715 252.932C286.577 253.08 286.467 253.257 286.392 253.452C286.317 253.648 286.278 253.857 286.278 254.069C286.278 254.281 286.317 254.491 286.392 254.687C286.467 254.882 286.577 255.059 286.715 255.206C294.401 265.713 301.487 276.734 307.931 288.205C301.555 289.263 295.408 291.593 289.794 295.08C288.885 295.178 287.984 295.355 287.1 295.609C284.458 296.265 281.77 296.672 279.066 296.825C267.808 296.825 267.375 291.537 263.334 292.119C255.3 293.018 257.657 310.469 276.131 314.171C272.812 324.377 271.32 346.852 277.526 356.477C270.117 356.477 265.355 354.785 265.066 363.087C264.969 364.584 264.969 366.086 265.066 367.582C262.681 365.895 259.981 364.819 257.166 364.435C254.351 364.05 251.494 364.367 248.805 365.361C243.754 367.476 234.132 378.529 229.273 383.13C229.273 380.909 229.273 377.524 227.493 377.313C196.944 374.51 150.52 373.717 122.713 374.563C121.188 352.988 121.446 331.305 123.483 309.781C123.565 309.34 123.485 308.88 123.26 308.503C123.034 308.126 122.682 307.863 122.28 307.772C121.878 307.681 121.459 307.769 121.117 308.017C120.774 308.265 120.535 308.652 120.452 309.094C118.912 318.613 115.929 357.429 119.057 374.721L79.6556 377.577C79.3647 377.607 79.0889 377.734 78.8649 377.94C78.6408 378.146 78.4789 378.422 78.4007 378.732C78.3225 379.041 78.3316 379.37 78.4268 379.673C78.5221 379.977 78.6989 380.242 78.934 380.433C79.0696 380.566 79.2309 380.664 79.4059 380.719C79.5809 380.774 79.765 380.784 79.9442 380.75C128.516 377.48 177.233 377.833 225.761 381.808C225.985 399.676 230.878 417.097 239.857 431.993C175.68 482.814 70.082 516.024 26.9767 443.998C-4.05331 392.543 11.3414 302.642 68.8793 247.75C96.3621 221.848 129.8 204.76 165.529 198.357C174.237 216.602 206.181 237.808 212.435 236.116L212.483 236.222ZM283.78 300.315C281.329 303.161 279.271 306.385 277.67 309.887C268.674 308.406 263.575 303.224 262.709 298.94C262.035 295.979 263.623 294.763 266.942 297.248C272.164 300.049 278.016 301.115 283.78 300.315ZM307.161 329.454C306.917 329.762 306.773 330.15 306.75 330.558C306.728 330.966 306.829 331.37 307.038 331.708C307.247 332.046 307.551 332.299 307.904 332.427C308.257 332.555 308.638 332.551 308.989 332.415C312.886 330.723 314.714 331.093 315.003 331.886C315.291 332.68 313.752 336.593 310.625 338.285C308.604 339.396 304.707 340.4 301.725 334.425C299.271 329.559 303.457 324.218 301.725 323.108C299.993 321.997 295.086 330.194 299.271 337.386C298.407 338.083 297.372 338.48 296.301 338.527C295.23 338.574 294.17 338.269 293.258 337.651C291.141 335.853 289.698 330.829 292.151 321.786C293.065 318.295 287.677 317.396 287.004 332.362C286.715 334.425 284.646 347.117 284.021 351.4C283.395 355.684 282.529 356.001 282.433 356.054C282.337 356.107 281.904 356.054 281.519 355.472C278.103 351.241 274.014 329.718 280.557 313.166C282.591 307.584 286.066 302.777 290.553 299.338C295.041 295.899 300.346 293.978 305.814 293.811C309.03 293.743 312.213 294.531 315.093 296.106C317.972 297.682 320.463 299.999 322.353 302.86C324.242 305.722 325.475 309.042 325.946 312.54C326.417 316.038 326.112 319.609 325.057 322.949C324.539 324.727 323.659 326.351 322.483 327.698C321.308 329.045 319.868 330.08 318.274 330.723C317.725 329.69 316.962 328.815 316.047 328.167C315.133 327.519 314.092 327.117 313.01 326.993C311.928 326.87 310.834 327.028 309.818 327.455C308.802 327.883 307.892 328.567 307.161 329.454ZM271.753 374.245C271.164 372.422 270.027 370.874 268.53 369.856L269.107 361.289H291.911C291.911 364.145 292.632 372.553 292.632 372.553C285.645 372.587 278.669 373.152 271.753 374.245ZM286.667 356.53C287.937 350.751 288.853 344.886 289.409 338.973C290.973 340.845 293.097 342.036 295.394 342.327C297.691 342.618 300.007 341.991 301.917 340.559L302.687 341.141C300.629 351.464 300.368 362.123 301.917 372.553H297.106C297.237 367.548 296.735 362.547 295.615 357.693C294.22 356.318 288.784 356.53 286.667 356.53ZM249.623 369.327C252.848 368.441 256.228 368.508 259.421 369.52C262.615 370.532 265.508 372.454 267.808 375.091C268.674 376.678 268.53 377.207 268.482 377.365C268.434 377.524 265.595 377.947 263.671 377.841C260.828 377.337 257.913 377.779 255.3 379.111C251.334 382.608 248.735 387.641 248.036 393.177C247.314 406.662 282.77 404.97 294.893 404.547C285.945 414.595 259.293 412.321 241.252 426.176C234.948 414.223 230.937 400.977 229.466 387.255C232.641 385.668 244.524 371.76 249.623 369.327ZM400.059 419.619C389.667 452.988 357.098 444.421 355.751 444.051C333.043 437.757 319.91 414.489 314.955 403.701C320.343 402.326 318.803 396.509 318.274 390.903L360.225 389.846C363.592 396.879 371.578 394.552 371.194 387.519C371.243 385.988 370.803 384.487 369.951 383.276C369.099 382.064 367.888 381.219 366.528 380.886C365.169 380.553 363.746 380.754 362.506 381.453C361.267 382.153 360.29 383.307 359.744 384.716C353.73 384.134 324.143 385.033 317.937 385.774C317.216 371.601 317.937 372.606 306.055 372.659C304.948 362.719 304.948 352.667 306.055 342.727C308.575 343.244 311.18 342.77 313.414 341.387C315.648 340.004 317.369 337.802 318.274 335.165C326.26 334.055 334.294 318.824 327.222 302.536C325.898 299.802 324.074 297.399 321.863 295.479C319.652 293.558 317.103 292.162 314.377 291.378C351.084 290.321 384.327 322.843 397.605 361.554C398.712 361.025 398.279 361.554 397.605 361.554C404.44 380.031 405.306 400.525 400.059 419.619ZM149.894 928.615C148.364 935.276 147.239 942.043 146.527 948.869C134.825 950.2 123.036 950.341 111.311 949.292C112.081 941.941 112.802 934.643 113.524 927.293L149.894 928.615ZM791.181 712.272C801.669 702.806 848.046 714.863 841.118 758.755H394.622L390.437 700.161C414.828 690.854 432.724 705.027 439.027 722.266C440.133 725.492 446.339 722.742 436.669 709.469C430.524 701.121 421.847 695.488 412.23 693.604C435.515 644.317 501.423 652.197 514.22 705.185C514.894 707.988 518.694 706.613 518.021 703.81C514.161 688.184 505.084 674.731 492.6 666.135C480.117 657.539 465.144 654.431 450.669 657.432C454.748 648.418 460.784 640.647 468.244 634.806C475.704 628.965 484.358 625.234 493.441 623.943C502.524 622.652 511.757 623.84 520.323 627.403C528.89 630.966 536.525 636.793 542.556 644.37C546.982 649.658 561.8 680.648 566.611 684.297C562.655 691.751 560.18 700.042 559.346 708.623C553.399 711.018 547.991 714.795 543.491 719.695C538.991 724.596 535.505 730.505 533.271 737.021C533.112 737.42 533.103 737.873 533.248 738.28C533.392 738.687 533.677 739.014 534.041 739.189C534.405 739.364 534.817 739.374 535.187 739.215C535.557 739.056 535.854 738.742 536.013 738.343C538.924 730.931 543.542 724.482 549.412 719.631C555.282 714.78 562.201 711.695 569.486 710.681C576.772 709.666 584.172 710.757 590.957 713.846C597.742 716.935 603.677 721.915 608.176 728.295C608.495 728.786 608.979 729.117 609.52 729.217C610.061 729.316 610.616 729.174 611.063 728.824C611.509 728.473 611.811 727.942 611.901 727.347C611.991 726.752 611.863 726.142 611.544 725.651C606.002 717.584 598.387 711.529 589.682 708.268C580.978 705.006 571.584 704.688 562.714 707.353C564.128 698.933 567.077 690.914 571.385 683.78C575.692 676.646 581.269 670.543 587.778 665.841C595.649 660.294 604.673 657.036 614.003 656.374C623.333 655.712 632.664 657.666 641.118 662.054C649.573 666.442 656.875 673.119 662.338 681.459C667.802 689.799 671.248 699.528 672.353 709.733C672.457 710.26 672.732 710.728 673.127 711.048C673.521 711.369 674.009 711.52 674.498 711.475C674.986 711.43 675.444 711.191 675.784 710.802C676.124 710.413 676.324 709.902 676.346 709.363C675.071 697.722 670.974 686.672 664.483 677.369C657.991 668.066 649.344 660.851 639.447 656.48C642.657 647.169 647.988 638.92 654.928 632.521C661.869 626.123 670.188 621.791 679.088 619.938C707.184 615.179 731.286 638.923 734.846 666.898C727.486 668.238 720.497 671.394 714.406 676.129C708.315 680.865 703.28 687.056 699.679 694.239C698.813 696.037 701.459 697.623 702.373 695.878C707.626 686.118 715.65 678.525 725.21 674.264C734.77 670.003 745.339 669.31 755.292 672.292C764.869 675.645 773.202 682.314 779.046 691.302C784.89 700.29 787.932 711.115 787.718 722.161C787.718 723.588 789.449 725.386 790.748 724.382C791.278 724.012 792.817 722.795 791.229 712.272H791.181ZM512.873 141.773C545.876 135.427 580.225 134.317 627.612 138.177C635.213 210.045 636.32 277.734 637.523 350.025C628.286 327.603 618.905 294.868 619.049 272.288C619.004 246.019 613.195 220.151 602.115 196.877C588.933 169.219 571.085 149.653 551.649 172.604C524.708 204.333 526.632 242.62 527.161 285.085C525.377 303.969 521.681 322.575 516.145 340.559C514.461 252.404 509.794 187.464 512.873 141.773ZM705.692 478.847C702.154 478.239 698.551 478.239 695.012 478.847L695.493 437.176C695.634 436.232 695.578 435.265 695.328 434.348C695.077 433.432 694.641 432.59 694.05 431.888C683.033 421.734 652.196 389.053 641.997 359.914C641.997 329.242 641.564 298.147 640.457 267.475C664.848 266.682 687.652 266.999 706.847 267.475C708.771 319.036 705.163 409.148 705.692 478.847ZM513.547 620.309C503.807 617.929 493.679 618.29 484.1 621.359C474.521 624.428 465.802 630.106 458.751 637.866C458.414 626.496 456.298 555.845 455.576 533.634L510.227 532.47C510.083 543.206 512.633 609.944 513.547 620.309ZM620.059 308.777C628.863 348.809 644.643 391.591 691.308 435.113C691.308 449.392 689.817 485.511 690.683 499.26C689.72 499.26 618.905 499.789 613.709 500.265C619.091 436.617 621.211 372.686 620.059 308.777ZM528.22 309.57C531.443 374.351 537.36 438.815 545.876 501.428C534.089 501.111 478.812 499.26 470.778 499.683C470.778 491.01 468.806 441.089 468.613 436.224C499.254 401.268 519.967 357.257 528.22 309.57ZM513.787 532.365C517.251 532.365 524.9 533.264 524.467 529.509C522.305 521.24 519.354 513.246 515.664 505.659L546.357 506.135C547.078 511 547.752 515.865 548.425 520.73C543.903 526.019 534.763 556.691 533.512 562.243C533.416 562.612 533.401 563.001 533.467 563.378C533.534 563.755 533.681 564.109 533.897 564.412C535.051 565.998 538.082 566.21 541.305 566.21C527.306 590.588 534.907 620.732 540.247 635.592C533.589 629.175 525.791 624.349 517.347 621.419C518.454 611.742 514.413 541.249 513.835 532.365H513.787ZM538.419 589.689C539.438 581.526 541.854 573.649 545.539 566.474C567.731 567.452 589.954 567.187 612.121 565.681C614.767 577.156 638.87 607.247 608.946 652.461C600.825 653.671 593.027 656.744 586.056 661.482C579.086 666.219 573.1 672.515 568.487 679.96C551.456 651.668 534.089 623.746 538.467 589.689H538.419ZM615.826 366.419C615.104 419.724 612.121 466.42 608.561 517.505L551.937 519.144C541.257 437.863 536.687 379.692 532.694 312.901C531.587 293.969 530.481 274.35 530.866 255.154C531.491 222.208 537.601 198.728 550.109 181.118C567.813 156.316 582.15 167.368 596.197 194.814C604.265 210.657 609.813 227.898 612.602 245.793C616.932 272.763 616.066 351.03 615.874 366.419H615.826ZM636.031 655.105C629.11 652.641 621.842 651.566 614.575 651.932C622.669 639.361 627.178 624.427 627.53 609.031C627.881 593.634 624.058 578.471 616.547 565.469C619.674 565.469 627.997 565.469 627.035 562.243C625.399 556.215 620.781 543.682 617.076 533.581C614.671 526.918 612.266 521.153 612.266 519.62C612.554 516.817 613.709 504.337 613.709 504.337C618.183 505.13 639.591 504.337 646.856 504.337C640.746 525.49 641.564 522.846 640.265 526.495C639.303 529.297 638.821 530.672 639.447 531.783C640.072 532.893 642.622 532.841 649.069 532.999C649.069 563.513 651.426 598.785 652.629 629.193C644.834 635.77 639.059 644.813 636.079 655.105H636.031ZM652.148 532.946L706.943 533.528C705.198 562.321 705.295 591.213 707.232 619.991C698.974 616.01 689.918 614.448 680.947 615.458C671.976 616.469 663.397 620.016 656.044 625.755C655.034 594.819 654.264 563.037 652.196 532.946H652.148ZM513.114 137.807C516.433 95.0247 529.23 37.7527 570.844 4.85969C610.87 35.0557 621.791 86.6163 627.083 133.312C592.974 130.562 544.962 130.932 513.162 137.807H513.114ZM448.167 274.403C459.377 274.403 501.087 273.768 510.708 273.715C511.574 299.099 512.456 324.518 513.354 349.972C504.454 375.356 484.489 414.383 465.775 433.527C464.813 438.815 466.064 472.872 466.304 479.006C462.792 479.376 459.28 479.746 456.009 480.275C454.085 409.095 448.167 317.132 448.167 274.403Z" fill="black"/>
<path d="M215.273 154.835C202.236 153.724 198.917 143.307 196.03 144.258C195.26 144.258 194.923 145.369 194.731 145.951C190.642 155.734 195.838 167.897 204.93 167.897C207.727 167.568 210.39 166.41 212.635 164.547C214.881 162.684 216.624 160.187 217.679 157.32C217.838 156.956 217.887 156.545 217.82 156.148C217.752 155.751 217.571 155.387 217.303 155.11C217.035 154.834 216.694 154.658 216.329 154.608C215.964 154.559 215.595 154.638 215.273 154.835ZM212.964 158.484C206.47 168.003 196.174 163.772 197.185 150.71C199.18 153.138 201.614 155.083 204.33 156.422C207.047 157.76 209.987 158.462 212.964 158.484ZM578.06 386.038C577.983 385.475 577.725 384.96 577.332 384.588C576.939 384.217 576.438 384.012 575.919 384.012C575.401 384.012 574.9 384.217 574.507 384.588C574.114 384.96 573.856 385.475 573.778 386.038C573.778 394.023 576.184 492.544 577.531 503.226C577.531 503.731 577.713 504.215 578.038 504.572C578.363 504.929 578.804 505.13 579.263 505.13C579.722 505.13 580.163 504.929 580.487 504.572C580.812 504.215 580.995 503.731 580.995 503.226C583.16 469.593 579.07 420.888 578.06 386.038ZM198.002 129.927C199.542 129.927 200.023 128.129 199.686 126.278C199.013 122.577 196.319 122.365 195.645 124.48C194.972 126.596 195.934 129.927 198.002 129.927ZM192.903 107.558C190.737 108.031 188.785 109.309 187.375 111.177C185.964 113.045 185.181 115.39 185.157 117.817C185.542 120.567 187.611 120.567 187.948 118.557C188.958 112.899 191.123 113.269 193.817 111.471C194.205 111.263 194.516 110.914 194.697 110.483C194.878 110.051 194.919 109.565 194.811 109.105C194.704 108.645 194.455 108.24 194.108 107.958C193.76 107.676 193.334 107.535 192.903 107.558ZM684.284 604.655C684.284 605.66 686.064 605.343 686.256 604.338C687.026 600.742 683.466 559.758 684.043 548.652C684.043 547.225 682.119 547.278 682.023 548.652C681.134 567.357 681.892 586.111 684.284 604.655ZM573.634 647.649C574.596 648.442 576.088 647.173 575.462 646.009C573.634 642.466 571.036 639.716 568.294 634.27C564.085 625.638 561.657 616.093 561.183 606.313C560.71 596.534 562.201 586.759 565.552 577.685C566.081 576.363 564.157 575.57 563.579 576.945C559.49 587.263 557.827 598.545 558.743 609.755C559.66 620.964 563.126 631.74 568.823 641.091C570.11 643.537 571.733 645.749 573.634 647.649Z" fill="black"/>
</svg>
