<svg width="574" height="589" viewBox="0 0 574 589" fill="none" xmlns="http://www.w3.org/2000/svg">
<path fill-rule="evenodd" clip-rule="evenodd" d="M537.056 357.948C504.168 324.888 451.258 305.627 407.528 294.608C409.571 284.484 410.673 274.165 410.82 263.804C411.001 263.805 411.181 263.765 411.347 263.686C411.513 263.607 411.661 263.492 411.784 263.347C411.906 263.202 411.999 263.032 412.057 262.846C412.114 262.66 412.135 262.463 412.119 262.267C410.941 248.337 407.407 223.354 401.669 210.634C389.438 183.46 368.721 165.704 343.474 154.03C323.723 144.94 301.194 144.22 293.946 142.324C292.547 138.94 291.975 135.224 292.285 131.533C297.024 128.463 300.81 123.933 303.161 118.522C305.512 113.111 306.32 107.065 305.482 101.154C306.555 100.449 307.566 99.6391 308.502 98.7346C308.702 98.8491 308.925 98.909 309.152 98.909C309.378 98.909 309.601 98.8491 309.801 98.7346C312.833 97.2105 315.515 94.9768 317.653 92.1946C321.247 86.9953 318.77 84.7717 319.314 77.872C319.365 76.4267 319.672 75.0056 320.22 73.6864C326.924 59.2003 328.223 51.4831 325.143 34.8061C323.874 27.9718 317.774 27.2851 314.935 24.1786C312.096 21.0721 312.7 14.5648 307.838 11.3929C300.725 6.68765 292.906 3.3675 284.735 1.58291C263.927 -2.27569 262.417 12.8971 249.522 12.6028C240.764 12.4066 233.304 7.37081 221.073 18.031C217.282 21.1631 214.183 25.1722 212.005 29.7658C209.826 34.3594 208.622 39.4217 208.48 44.5834C208.782 52.8565 214.671 61.7836 214.882 69.7624C215.064 76.3024 212.497 84.085 216.181 89.3824C217.782 91.6714 220.167 93.4045 220.953 95.9224C222.698 98.1757 224.732 100.147 226.993 101.776C227.197 101.858 227.422 101.858 227.627 101.776C230.484 104.348 233.838 106.192 237.442 107.171C240.106 116.674 245.371 125.078 252.542 131.271C251.571 134.561 250.391 137.773 249.008 140.885C246.95 141.927 244.807 142.759 242.606 143.37C218.808 150.662 197.578 151.512 170.488 177.018C151.475 194.498 138.077 218.062 132.225 244.315C130.541 252.035 129.63 259.928 129.507 267.859C129.507 271.456 129.507 272.274 133.463 272.339C134.097 281.576 135.43 290.741 137.45 299.741C63.2482 324.234 -10.2888 374.755 1.3382 457.813C11.6062 531.029 107.612 563.598 174.988 576.809C239.1 588.83 304.367 591.929 369.204 586.03C421.239 581.19 466.72 570.399 495.471 554.703C575.229 510.82 602.892 424.263 537.056 357.948ZM406.23 293.136C401.096 312.756 389.076 318.74 370.745 323.057C357.668 326.327 340.937 318.871 330.971 309.159C319.254 297.747 282.983 251.444 276.279 244.707C274.709 238.854 271.84 208.737 273.048 202.197C273.712 201.413 273.863 201.642 274.286 202.197C275.433 203.734 275.343 204.029 284.312 232.379C284.413 232.701 284.611 232.976 284.874 233.16C285.137 233.344 285.45 233.426 285.762 233.393C311.13 230.483 346.162 246.735 352.594 256.676C352.759 256.845 352.954 256.975 353.167 257.06C353.38 257.144 353.606 257.18 353.833 257.166C362.681 257.166 400.824 258.343 409.521 263.706V263.935C409.225 273.755 408.123 283.527 406.23 293.136ZM482.424 403.858C494.892 403.615 507.258 406.316 518.664 411.772C550.827 428.678 526.879 456.571 482.424 456.538C482.08 456.513 481.74 456.63 481.473 456.866C481.205 457.102 481.031 457.439 480.985 457.809C480.939 458.18 481.024 458.555 481.224 458.859C481.424 459.164 481.724 459.374 482.062 459.448C494.867 463.372 503.202 469.716 506.222 476.812C508.638 482.763 506.947 489.14 500.756 494.797C485.233 509.087 452.436 511.409 430.51 504.607C430.2 504.515 429.869 504.54 429.573 504.679C429.277 504.817 429.034 505.061 428.883 505.369C428.732 505.677 428.682 506.032 428.742 506.375C428.801 506.718 428.967 507.028 429.212 507.256C435.252 512.913 437.064 519.289 434.648 525.208C424.923 549.046 363.406 553.853 340.333 532.696C340.127 532.5 339.872 532.373 339.601 532.33C339.329 532.288 339.051 532.331 338.802 532.456C338.553 532.581 338.342 532.781 338.196 533.032C338.049 533.284 337.974 533.576 337.978 533.874C337.978 556.764 283.165 569.157 250.851 552.218C241.791 547.509 236.083 541.1 236.083 533.874C236.082 533.582 236.004 533.297 235.859 533.052C235.715 532.806 235.508 532.611 235.265 532.487C235.021 532.364 234.75 532.318 234.483 532.355C234.216 532.392 233.964 532.51 233.757 532.696C226.177 539.629 213.644 544.076 199.903 545.776C187.753 547.177 175.469 546.146 163.663 542.735C150.858 538.811 142.523 532.5 139.503 525.372C137.087 519.453 138.778 513.076 144.969 507.387C145.21 507.162 145.373 506.855 145.43 506.517C145.487 506.178 145.436 505.829 145.284 505.527C145.132 505.225 144.889 504.988 144.595 504.856C144.302 504.725 143.976 504.706 143.671 504.803C121.866 511.343 89.039 509.316 73.3954 494.993C67.3554 489.303 65.483 482.927 67.899 476.943C70.919 469.847 79.224 463.47 92.059 459.546C92.3777 459.473 92.6591 459.272 92.8473 458.983C93.0355 458.695 93.1167 458.341 93.0749 457.991C93.033 457.641 92.8712 457.321 92.6215 457.094C92.3717 456.867 92.0524 456.751 91.7268 456.767C47.5744 456.767 22.8406 428.972 55.4868 411.804C66.8851 406.316 79.254 403.593 91.7268 403.826C91.9977 403.84 92.2637 403.744 92.4727 403.557C92.6817 403.37 92.8185 403.105 92.8563 402.814C92.8942 402.523 92.8302 402.228 92.6771 401.985C92.524 401.743 92.2928 401.571 92.0288 401.504C79.1032 397.58 70.617 391.171 67.6876 383.977C65.181 377.894 66.8722 371.355 73.184 365.534C82.999 356.476 99.4278 352.748 112.444 351.996C107.694 359.241 105.255 367.967 105.498 376.848C106.072 391.857 120.236 404.087 132.044 412.099C128.775 419.071 127.815 427.048 129.326 434.694C133.373 456.342 160.673 468.31 180.122 474.523C178.34 483.548 174.384 535.639 182.448 534.593C192.202 533.35 195.494 500.977 206.608 494.993C208.118 494.208 219.443 491.069 236.596 486.066C276.749 490.783 317.259 490.706 357.396 485.837C364.886 487.472 369.476 488.486 370.533 488.911C382.07 494.078 387.294 526.189 397.079 526.745C404.448 527.17 399.012 484.954 397.804 477.008C432.896 464.648 460.952 433.975 437.064 403.989C448.57 395.487 462.975 382.505 464.244 367.496C464.564 362.311 463.843 357.112 462.13 352.258C474.995 353.043 491.182 356.77 500.876 365.697C507.098 371.453 508.819 377.895 506.343 383.911C503.323 391.04 494.987 397.384 482.183 401.308C481.954 401.433 481.766 401.631 481.643 401.875C481.52 402.118 481.468 402.397 481.494 402.673C481.52 402.949 481.623 403.21 481.789 403.422C481.955 403.633 482.177 403.786 482.424 403.858ZM157.684 325.934C152.743 326.177 147.846 327.056 143.097 328.55C145.577 326.009 148.384 323.872 151.432 322.206C153.396 323.671 155.49 324.92 157.684 325.934ZM194.256 462.261C199.662 470.043 201.625 475.798 210.775 491.069C207.755 491.985 206.094 492.573 205.551 492.868C193.803 499.408 190.118 531.519 181.995 532.664C181.27 532.664 180.575 530.473 180.394 529.688C177.555 518.799 178.975 484.3 181.058 474.098C181.3 472.757 193.169 463.143 194.256 462.261ZM434.98 405.134C457.57 433.779 430.299 462.162 396.988 473.804C396.445 470.534 395.871 467.787 395.388 465.956C394.542 462.915 369.023 445.355 365.792 443.066C341.703 454.108 316.891 463.202 291.56 470.272C328.253 479.265 326.109 477.793 324.961 478.48C333.629 480.442 341.42 482.142 347.974 483.548C313.389 487.032 278.58 487.032 243.995 483.548C297.691 467.82 388.714 438.455 434.98 405.134ZM387.083 460.266C389.654 462.062 392.061 464.121 394.27 466.413C396.898 476.223 401.277 517.295 397.472 524.194C397.29 524.554 397.109 524.816 396.837 524.816C388.563 524.26 382.523 490.71 370.624 486.622C376.694 478.12 381.737 468.833 387.204 460.266H387.083ZM389.71 321.029C362.379 330.839 198.393 453.824 181.33 471.711C162.848 465.923 135.396 454.413 131.53 433.942C130.135 427.017 130.966 419.783 133.886 413.439C155.268 427.37 184.833 438.782 208.661 446.859C254.958 408.698 260.454 403.466 281.141 387.639C258.944 373.611 208.993 342.546 185.377 331.493C188.026 331.179 190.643 330.61 193.199 329.793V333.782L196.038 335.254V328.714C203.943 325.68 211.153 320.84 217.178 314.522C224.546 306.609 242.425 282.084 249.401 272.601C250.097 272.84 250.841 272.865 251.55 272.675C252.259 272.485 252.905 272.085 253.418 271.521C255.358 269.398 257.024 267 258.37 264.393C258.695 263.826 258.852 263.165 258.819 262.498C258.787 261.832 258.567 261.192 258.189 260.665C270.088 244.577 268.88 247.16 269.273 246.081C270.222 239.697 270.777 233.252 270.934 226.788C271.443 233.238 272.371 239.641 273.712 245.95C273.812 246.241 273.978 246.5 274.195 246.702C278.755 251.149 301.919 280.318 317.713 298.63C327.8 310.336 334.595 318.25 348.759 323.384C354.946 325.781 361.545 326.675 368.087 326C368.087 327.962 368.298 329.727 368.359 331.232L371.107 329.858C371.107 329.629 371.107 326.817 370.865 325.476C379.533 323.449 389.167 320.277 395.992 314.326C400.933 314.921 405.821 315.949 410.609 317.399C403.538 317.4 396.517 318.671 389.831 321.16L389.71 321.029ZM256.226 258.67C250.186 253.602 249.612 254.583 245.928 248.239C246.9 247.557 247.732 246.667 248.374 245.623C249.892 242.033 250.527 238.079 250.216 234.145C252.379 234.015 254.547 234.015 256.709 234.145C257.023 234.157 257.331 234.054 257.583 233.852C257.835 233.65 258.017 233.361 258.099 233.034C265.951 202.819 266.132 200.334 267.793 202.197C269.363 208.737 267.974 238.952 266.736 244.936C265.014 246.866 261.149 252 256.226 258.67ZM247.559 234.996C247.51 236.773 247.338 238.543 247.045 240.293C243.991 241.913 240.631 242.741 237.23 242.713C234.481 242.779 231.742 242.326 229.137 241.372C229.528 239.181 230.33 237.1 231.492 235.257C236.566 232.183 244.509 229.6 247.559 234.996ZM214.792 153.769C225.362 150.499 243.784 146.28 249.19 143.697C250.911 142.88 251.455 143.141 255.23 131.238C255.3 130.99 255.298 130.724 255.222 130.478C255.146 130.232 255.001 130.017 254.807 129.865C247.529 123.95 242.177 115.682 239.526 106.256C238.982 104.097 230.858 104.49 227.446 97.5574C226.183 93.8262 226.313 89.7088 227.808 86.0797C228.096 85.4387 228.555 84.906 229.126 84.5504C229.697 84.1948 230.353 84.0327 231.009 84.085C232.409 84.3362 233.716 85.0043 234.784 86.0143C235.298 86.5048 236.928 86.0143 237.472 82.7443C238.408 77.3488 235.841 59.5927 238.408 50.0443C240.613 41.7712 246.743 40.2343 253.508 43.7332C263.776 49.0633 265.286 56.2573 281.957 60.0832C285.713 60.9278 289.536 61.3768 293.372 61.4239C294.943 61.4239 300.228 59.3638 301.889 59.56C303.066 61.7509 301.345 73.0978 302.795 76.1716C303.04 76.7688 303.431 77.2822 303.926 77.6567C304.421 78.0312 305.001 78.2526 305.603 78.2971C306.619 78.2918 307.631 78.1713 308.623 77.9374C308.895 77.9374 309.741 77.7085 309.922 77.9374C310.847 79.0095 311.566 80.2696 312.038 81.6449C312.509 83.0201 312.724 84.483 312.67 85.9489C312.851 90.8212 308.231 96.5437 308.11 97.2631C305.301 100.173 304.274 99.9118 304.365 100.86C306.479 123.75 291.288 128.917 291.047 130.911C290.591 135.176 291.217 139.495 292.859 143.403C294.097 146.117 320.25 145.43 343.021 156.09C368.208 167.862 388.321 185.52 399.857 211.68C405.263 223.877 408.464 247.291 409.733 260.73C400.31 259.52 402.243 256.185 354.437 254.844C352.818 252.772 350.949 250.947 348.88 249.416C348.773 243.837 348.217 238.279 347.219 232.805C346.917 226.526 343.142 210.209 341.662 208.836C341.179 208.247 340.363 209.032 340.786 209.653C341.088 209.653 342.477 225.218 347.279 248.239C332.179 237.252 306.781 228.619 286.879 230.221C277.94 202.296 278.212 203.44 277.245 201.445C276.279 199.451 275.041 198.175 273.199 198.6C272.585 198.742 272.012 199.042 271.528 199.474C271.044 199.907 270.664 200.46 270.42 201.086C270.138 200.449 269.714 199.898 269.187 199.481C268.66 199.065 268.046 198.796 267.4 198.699C265.558 198.47 264.38 200.007 263.504 201.969C262.629 203.931 262.78 203.571 255.683 231.399C253.163 231.34 250.643 231.427 248.133 231.66C243.301 227.344 235.418 230.777 230.707 234.57C230.451 234.852 230.218 235.159 230.013 235.486C217.994 239.146 206.631 244.972 196.4 252.719C196.823 250.07 197.276 247.585 197.88 243.072C199.296 234.414 200.304 225.682 200.9 216.912C201.292 212.76 200.356 211.582 199.269 216.291C196.422 228.588 194.981 241.218 194.981 253.896C192.973 255.53 191.193 257.468 189.696 259.651C178.642 260.698 146.268 263.281 136 269.331C134.823 269.415 133.643 269.415 132.467 269.331C129.718 224.139 166.562 168.222 214.792 153.769ZM134.641 271.652C141.013 265.341 178.431 262.692 186.917 262.136C184.096 264.219 181.835 267.074 180.364 270.41C180.364 270.802 179.85 271.75 180.364 271.946C180.877 272.143 182.931 270.05 183.203 269.788C192.565 261.744 193.41 252.752 221.406 241.241C223.55 240.358 225.754 239.541 227.989 238.789C227.639 239.596 227.366 240.439 227.174 241.307C226.979 241.465 226.825 241.674 226.725 241.914C226.624 242.154 226.582 242.417 226.6 242.68C226.628 244.788 227.396 246.806 228.747 248.325C230.099 249.843 231.933 250.747 233.878 250.855C234.663 250.855 233.878 250.365 235.6 255.4C235.982 256.545 236.478 257.642 237.079 258.67C239.782 263.399 243.097 267.683 246.925 271.391C240.371 280.318 222.342 305.072 215.366 312.658C206.759 322.01 192.504 329.662 180.183 329.302C174.913 327.397 169.425 326.296 163.875 326.032C151.493 322.108 143.792 315.012 139.413 301.148C136.926 291.511 135.328 281.631 134.641 271.652ZM494.263 551.957C406.079 599.96 160.432 600.582 54.0372 528.543C26.525 509.872 8.103 486.36 4.026 457.356C-7.5104 375.9 65.6944 326.229 138.054 301.998C140.16 309.58 144.38 316.273 150.134 321.16C146.343 323.255 142.96 326.119 140.168 329.597C129.713 333.369 120.507 340.371 113.682 349.74C99.9412 350.296 82.3346 354.089 71.825 363.703C64.6072 370.243 62.765 377.829 65.785 384.729C68.805 391.629 75.147 397.22 85.4452 401.471C39.9036 404.251 22.599 434.466 54.3996 451.208C63.911 455.903 74.1592 458.599 84.5996 459.154C74.6638 463.405 68.1708 469.324 65.6038 475.504C62.5838 482.535 64.4562 490.186 71.6438 496.955C87.227 511.278 118.091 513.861 139.594 508.76C137.631 511.103 136.338 514.012 135.872 517.135C135.406 520.257 135.786 523.459 136.966 526.353C139.986 534.037 149.046 541.133 162.848 545.384C189.696 553.624 219.654 547.608 233.606 536.686C238.046 561.342 292.738 571.577 324.569 554.9C333.629 550.191 339.397 543.749 340.665 536.686C354.769 547.738 384.848 553.526 411.424 545.384C425.286 541.166 434.195 534.037 437.336 526.353C438.51 523.463 438.887 520.268 438.42 517.152C437.954 514.036 436.665 511.133 434.708 508.793C456.12 513.861 487.045 511.311 502.658 496.955C509.997 490.219 511.718 482.535 508.698 475.471C506.131 469.226 499.638 463.34 489.944 459.121C500.277 458.511 510.415 455.827 519.842 451.208C551.703 434.466 534.398 404.382 489.642 401.242C499.578 396.991 506.101 391.04 508.668 384.729C511.507 377.731 509.755 370.112 502.477 363.441C492.149 353.991 474.965 350.1 461.194 349.446C454.097 332.311 437.034 320.735 418.702 318.054C412.079 315.232 405.145 313.352 398.076 312.462C402.363 307.846 405.483 302.115 407.136 295.818C450.261 307.034 503.262 326.555 535.667 359.452C600.204 424.983 572.39 509.479 494.263 551.957Z" fill="black"/>
</svg>
