<svg width="40" height="38" viewBox="0 0 40 38" fill="none" xmlns="http://www.w3.org/2000/svg">
<path d="M20.0001 0C15.251 0.000188725 10.657 1.6198 7.03998 4.56904C3.42299 7.51828 1.01906 11.6047 0.258321 16.0971C-0.502415 20.5895 0.42969 25.1947 2.88785 29.0888C5.34602 32.9828 9.16983 35.9116 13.6751 37.351C14.6751 37.5188 15.0501 36.9438 15.0501 36.4406C15.0501 35.9854 15.0251 34.476 15.0251 32.8708C10.0001 33.7573 8.70005 31.6969 8.30005 30.6188C7.85621 29.5702 7.15261 28.641 6.25005 27.9115C5.55005 27.5521 4.55005 26.6656 6.22503 26.6417C6.86461 26.7082 7.47803 26.9215 8.01332 27.2635C8.5486 27.6054 8.98998 28.066 9.30005 28.6062C9.5736 29.0772 9.94141 29.4917 10.3824 29.8262C10.8235 30.1606 11.329 30.4084 11.8701 30.5553C12.4112 30.7022 12.9773 30.7453 13.5358 30.6822C14.0943 30.6191 14.6344 30.451 15.125 30.1875C15.2116 29.2131 15.6647 28.3021 16.4001 27.624C11.9501 27.1448 7.30005 25.4916 7.30005 18.1605C7.27195 16.2556 8.00543 14.4126 9.35005 13.0094C8.73862 11.3539 8.81016 9.53698 9.55005 7.93027C9.55005 7.93027 11.225 7.42712 15.0501 9.89485C18.3226 9.0323 21.7775 9.0323 25.0501 9.89485C28.875 7.40318 30.5501 7.93027 30.5501 7.93027C31.29 9.53695 31.3616 11.3539 30.7501 13.0094C32.0987 14.4102 32.8328 16.2548 32.8001 18.1605C32.8001 25.5156 28.125 27.1448 23.6751 27.624C24.1524 28.0876 24.52 28.6442 24.7529 29.2561C24.9858 29.8679 25.0787 30.5206 25.0251 31.1698C25.0251 33.7334 25 35.7938 25 36.4407C25 36.9438 25.375 37.5428 26.375 37.3511C30.8724 35.8999 34.6852 32.9643 37.1329 29.0683C39.5806 25.1722 40.5038 20.5693 39.7378 16.0813C38.9718 11.5932 36.5664 7.51213 32.951 4.56648C29.3356 1.62083 24.7455 0.00236691 20.0001 0Z" fill="black"/>
</svg>
