<svg width="35" height="38" viewBox="0 0 35 38" fill="none" xmlns="http://www.w3.org/2000/svg">
<path d="M0 4.41414C0 3.13465 0.394155 2.0791 1.18243 1.24747C1.97071 0.415812 2.99551 0 4.25676 0C5.49551 0 6.49774 0.409402 7.26351 1.22828C8.05179 2.07273 8.44595 3.17304 8.44595 4.52929C8.44595 5.75758 8.06307 6.78112 7.2973 7.6C6.50902 8.44444 5.47297 8.86667 4.18919 8.86667H4.15541C2.91666 8.86667 1.91443 8.44444 1.14865 7.6C0.382872 6.75556 0 5.69359 0 4.41414ZM0.439189 38V12.3596H7.93919V38H0.439189ZM12.0946 38H19.5946V23.6828C19.5946 22.7872 19.6847 22.0963 19.8649 21.6101C20.1802 20.7401 20.6588 20.0044 21.3007 19.403C21.9426 18.8017 22.7477 18.501 23.7162 18.501C26.2388 18.501 27.5 20.433 27.5 24.297V38H35V23.299C35 19.5118 34.2117 16.6394 32.6351 14.6818C31.0585 12.7242 28.9752 11.7455 26.3851 11.7455C23.4797 11.7455 21.2162 13.1657 19.5946 16.0061V16.0828H19.5608L19.5946 16.0061V12.3596H12.0946C12.1396 13.1784 12.1622 15.7246 12.1622 19.998C12.1622 24.2714 12.1396 30.272 12.0946 38Z" fill="black"/>
</svg>
