<svg width="154" height="154" viewBox="0 0 154 154" fill="none" xmlns="http://www.w3.org/2000/svg">
<path d="M118.815 7.41255C115.527 7.28223 112.683 10.4787 113.158 13.5986C113.383 14.6859 113.939 15.6768 114.75 16.4347C115.562 17.1925 116.588 17.68 117.688 17.83C120.755 18.2286 124.097 15.6683 123.982 12.4641C123.886 11.1364 123.308 9.88968 122.356 8.95908C121.404 8.02847 120.145 7.47837 118.815 7.41255ZM120.87 15.5456L118.57 14.0125L115.573 15.8829L116.592 13.0544L114.921 11.9735L117.16 11.6056L118.57 9.34425L119.421 11.1303L122.027 11.0153L120.103 12.878L120.87 15.5456ZM86.7198 48.193C87.2334 48.0627 87.862 47.6028 87.793 47.0202C87.724 46.4376 87.0954 46.1386 86.5895 46.1157C85.777 46.1157 84.9644 46.8822 85.1024 47.4878C85.2404 48.0934 86.0529 48.354 86.7198 48.193ZM64.1219 132.23C64.8766 131.602 65.5488 130.88 66.1226 130.084C67.1115 128.696 68.5603 126.68 68.016 124.488C67.6711 123.077 66.3986 121.238 64.5742 121.176C62.7498 121.115 61.278 123.047 60.8411 124.457C60.2355 126.381 61.1401 128.129 61.7456 129.286C62.3327 130.417 63.1408 131.418 64.1219 132.23ZM62.8571 125.178C62.8571 124.874 62.947 124.578 63.1155 124.326C63.284 124.074 63.5234 123.877 63.8035 123.761C64.0837 123.645 64.3919 123.615 64.6893 123.674C64.9867 123.733 65.2599 123.879 65.4743 124.094C65.6887 124.308 65.8347 124.581 65.8939 124.879C65.953 125.176 65.9227 125.484 65.8066 125.764C65.6906 126.044 65.4941 126.284 65.242 126.452C64.9899 126.621 64.6934 126.711 64.3902 126.711C63.9836 126.711 63.5937 126.549 63.3062 126.262C63.0186 125.974 62.8571 125.584 62.8571 125.178ZM116.853 132.015C116.945 129.095 115.32 127.125 114.155 127.125C112.989 127.125 111.364 129.095 111.449 132.015H116.853ZM117.558 130.605L119.421 130.643C119.582 129.969 119.489 129.26 119.16 128.65C118.516 127.523 117.481 127.01 116.784 128.091C117.287 128.833 117.557 129.708 117.558 130.605ZM108.85 130.643L110.713 130.605C110.715 129.709 110.982 128.835 111.479 128.091C110.774 127.01 109.739 127.531 109.103 128.65C108.776 129.261 108.686 129.97 108.85 130.643ZM114.155 126.527C114.514 126.559 114.875 126.481 115.189 126.302C115.502 126.124 115.754 125.854 115.91 125.528C116.066 125.203 116.119 124.837 116.061 124.481C116.004 124.125 115.839 123.795 115.588 123.535C115.338 123.275 115.014 123.097 114.66 123.027C114.306 122.956 113.939 122.995 113.608 123.139C113.277 123.282 112.998 123.524 112.808 123.831C112.618 124.138 112.526 124.495 112.545 124.856C112.557 125.285 112.729 125.693 113.027 126.002C113.324 126.311 113.727 126.498 114.155 126.527ZM110.153 127.017C110.469 126.988 110.762 126.841 110.974 126.605C111.186 126.369 111.301 126.062 111.295 125.745C111.273 125.522 111.186 125.31 111.046 125.135C110.905 124.96 110.717 124.829 110.503 124.76C110.29 124.69 110.061 124.684 109.844 124.742C109.627 124.8 109.432 124.92 109.282 125.087C109.132 125.254 109.034 125.461 109 125.683C108.965 125.904 108.996 126.131 109.089 126.336C109.181 126.54 109.331 126.714 109.52 126.835C109.709 126.956 109.929 127.019 110.153 127.017ZM118.156 127.017C118.472 126.988 118.765 126.841 118.977 126.605C119.189 126.369 119.303 126.062 119.298 125.745C119.276 125.522 119.189 125.31 119.049 125.135C118.908 124.96 118.719 124.829 118.506 124.76C118.293 124.69 118.064 124.684 117.847 124.742C117.63 124.8 117.435 124.92 117.285 125.087C117.135 125.254 117.037 125.461 117.003 125.683C116.968 125.904 116.999 126.131 117.091 126.336C117.184 126.54 117.333 126.714 117.522 126.835C117.711 126.956 117.932 127.019 118.156 127.017ZM67.7707 50.4007C67.2317 50.4421 66.6937 50.3076 66.2376 50.0174C66.4411 49.3443 66.7773 48.7187 67.2265 48.1777C67.26 48.1282 67.2749 48.0685 67.2686 48.0091C67.2623 47.9496 67.2351 47.8944 67.192 47.8531C67.1488 47.8117 67.0924 47.787 67.0328 47.7833C66.9732 47.7796 66.9141 47.7971 66.8662 47.8327C66.5979 48.1087 65.4327 49.7951 65.655 50.3393C65.8773 50.8836 67.6864 51.1826 68.0927 50.7916C68.1445 50.7489 68.1773 50.6874 68.1837 50.6205C68.1902 50.5537 68.1699 50.487 68.1272 50.4352C68.0845 50.3833 68.0229 50.3506 67.9561 50.3441C67.8892 50.3376 67.8226 50.358 67.7707 50.4007ZM72.278 54.2794C73.9588 54.2246 75.5749 53.6185 76.8773 52.5547C76.814 53.0804 76.6407 53.587 76.3686 54.0413C76.0965 54.4956 75.7318 54.8876 75.2982 55.1916C75.2474 55.2221 75.2108 55.2715 75.1964 55.329C75.182 55.3865 75.1911 55.4474 75.2216 55.4982C75.2521 55.5491 75.3015 55.5857 75.359 55.6001C75.4165 55.6144 75.4774 55.6054 75.5282 55.5749C76.2036 55.2025 76.7564 54.6422 77.1197 53.9619C77.483 53.2816 77.6411 52.5105 77.5749 51.7421C77.5711 51.6755 77.548 51.6113 77.5084 51.5575C77.4689 51.5037 77.4146 51.4625 77.3521 51.439C77.2896 51.4154 77.2216 51.4105 77.1564 51.4249C77.0911 51.4393 77.0315 51.4722 76.9846 51.5198C75.7543 52.8427 74.0653 53.646 72.2627 53.7658C72.1868 53.7698 72.1154 53.8033 72.0639 53.8591C72.0123 53.915 71.9846 53.9888 71.9867 54.0648C72.0052 54.1275 72.0436 54.1824 72.0962 54.2212C72.1488 54.2599 72.2127 54.2804 72.278 54.2794ZM72.6383 37.2927C72.5529 37.2927 72.471 37.3266 72.4106 37.387C72.3503 37.4473 72.3164 37.5292 72.3164 37.6146C72.3164 37.7 72.3503 37.7819 72.4106 37.8423C72.471 37.9026 72.5529 37.9366 72.6383 37.9366C73.2572 37.9668 73.8615 38.1354 74.4067 38.4299C74.9519 38.7244 75.4242 39.1373 75.7888 39.6383C75.8266 39.6833 75.8792 39.7132 75.9372 39.7227C75.9951 39.7322 76.0545 39.7206 76.1046 39.6899C76.1547 39.6593 76.1922 39.6117 76.2102 39.5558C76.2282 39.5 76.2256 39.4395 76.2028 39.3853C75.8441 38.7548 75.326 38.2295 74.7004 37.8623C74.0748 37.495 73.3637 37.2986 72.6383 37.2927ZM63.478 37.8139C62.9681 38.2448 62.3126 38.4642 61.646 38.4272C61.5772 38.4238 61.5097 38.4463 61.4566 38.4901C61.4036 38.534 61.3689 38.5961 61.3593 38.6643C61.3497 38.7325 61.3659 38.8018 61.4048 38.8586C61.4436 38.9154 61.5023 38.9556 61.5693 38.9714C61.9817 39.0579 62.4086 39.0483 62.8167 38.9433C63.2248 38.8383 63.6032 38.6407 63.9226 38.3658C64.2293 38.0745 63.823 37.561 63.478 37.8139ZM62.7728 45.6557C62.7728 45.3108 62.5888 43.9003 62.5965 43.5707C62.5965 43.4996 62.5682 43.4313 62.5179 43.381C62.4676 43.3307 62.3994 43.3024 62.3282 43.3024C62.2583 43.3003 62.1904 43.3256 62.1388 43.3728C62.0873 43.4201 62.0562 43.4856 62.0522 43.5554C62.0106 44.283 62.0106 45.0124 62.0522 45.74C62.0634 45.8356 62.1121 45.9228 62.1876 45.9825C62.225 46.012 62.2678 46.0339 62.3136 46.0469C62.3594 46.0599 62.4074 46.0637 62.4547 46.0582C62.502 46.0526 62.5478 46.0378 62.5894 46.0146C62.6309 45.9914 62.6676 45.9602 62.6971 45.9228C62.7266 45.8855 62.7485 45.8426 62.7615 45.7968C62.7745 45.751 62.7783 45.703 62.7728 45.6557ZM73.5888 45.4718C73.5888 45.2188 73.4355 44.2069 73.4432 43.9387C73.4432 43.8675 73.4149 43.7993 73.3646 43.7489C73.3143 43.6986 73.246 43.6704 73.1749 43.6704C73.1037 43.6704 73.0355 43.6986 72.9852 43.7489C72.9349 43.7993 72.9066 43.8675 72.9066 43.9387C72.9066 44.2146 72.8299 45.2801 72.8606 45.5561C72.862 45.6071 72.8741 45.6572 72.8959 45.7033C72.9178 45.7494 72.949 45.7905 72.9875 45.8239C73.0261 45.8573 73.0712 45.8823 73.1199 45.8974C73.1687 45.9124 73.22 45.9171 73.2707 45.9113C73.3214 45.9054 73.3703 45.8891 73.4143 45.8633C73.4584 45.8375 73.4966 45.8028 73.5265 45.7615C73.5564 45.7202 73.5774 45.6731 73.5881 45.6232C73.5988 45.5733 73.5991 45.5217 73.5888 45.4718Z" fill="black"/>
<path d="M37.7911 78.9548C37.7829 78.9797 37.7829 79.0065 37.7911 79.0314C41.1414 86.5791 46.6013 92.998 53.5138 97.5156C60.4263 102.033 68.497 104.457 76.7548 104.496C100.702 104.496 120.326 84.3436 119.321 59.676C118.96 50.8258 115.759 42.3271 110.192 35.4377C105.856 30.1084 100.3 25.9015 93.9945 23.1729C94.0756 22.8965 94.137 22.6147 94.1785 22.3297C94.6078 19.5318 93.4119 17.6614 91.2886 15.768C90.2215 14.8484 89.1003 13.9935 87.9311 13.2078C86.7705 12.3381 85.4292 11.7408 84.0064 11.46C83.249 11.3072 82.4663 11.3352 81.7218 11.5416C80.9772 11.7481 80.2919 12.1272 79.7214 12.6482C79.5067 12.8705 79.3227 13.2231 79.0928 13.3611C78.7576 13.4626 78.4036 13.4862 78.0579 13.4301C75.7132 13.4297 73.3932 13.909 71.2405 14.8383C69.0878 15.7677 67.1479 17.1275 65.5402 18.8342C64.577 18.9963 63.6676 19.39 62.8905 19.9816C62.1133 20.5732 61.4915 21.3448 61.0789 22.2301C38.159 31.7429 28.4085 56.7248 37.7911 78.9548ZM63.6775 85.3784C62.7838 82.432 62.395 79.3556 62.5276 76.2795C62.6426 73.7192 62.8266 69.4419 65.5938 67.6481C66.4569 67.0491 67.3984 66.5719 68.3917 66.23C67.5102 71.113 69.2196 76.0265 71.2893 80.4879C69.9785 80.9555 64.8809 84.6196 63.6775 85.3938V85.3784ZM69.8099 66.2147C69.7409 65.4481 69.3883 63.1485 69.3346 62.7882C69.3241 62.6285 69.2728 62.4741 69.1855 62.3399C69.0983 62.2057 68.9781 62.0961 68.8363 62.0217C68.5834 61.8914 67.4566 61.5081 67.1576 61.3548C63.6238 59.6224 60.9869 55.4983 61.3242 49.4809C62.2565 49.6166 63.2063 49.5724 64.1221 49.3506C65.3255 48.9903 66.0768 47.8558 66.3451 45.9854C66.5185 45.8269 66.7238 45.7072 66.9472 45.6345C67.1706 45.5618 67.407 45.5377 67.6405 45.5638C68.1166 45.6045 68.5776 45.7512 68.9897 45.9931C69.0769 46.6017 69.3054 47.1814 69.6568 47.6858C70.0082 48.1903 70.4728 48.6055 71.0133 48.8983C72.2271 49.4847 73.6197 49.5826 74.9035 49.1718C76.1874 48.7609 77.2645 47.8728 77.9123 46.6907C78.2401 46.0359 78.4454 45.3266 78.5179 44.598C79.8225 44.6767 81.1316 44.5657 82.4043 44.2684C82.4043 44.6593 82.4043 45.3645 82.6572 45.5025C83.5004 45.9241 84.9569 42.536 87.0036 42.536C87.645 42.5769 88.2497 42.8493 88.7053 43.3025C89.0583 43.5635 89.3459 43.903 89.5454 44.294C89.745 44.6851 89.851 45.1172 89.8551 45.5562C89.807 45.9428 89.6827 46.316 89.4892 46.6542C89.2958 46.9923 89.0372 47.2887 88.7283 47.5262C87.8128 48.3876 86.6121 48.8815 85.3555 48.9137C85.3292 48.9167 85.3041 48.9261 85.2824 48.9411C85.2606 48.9561 85.2429 48.9763 85.2308 48.9998C85.2187 49.0232 85.2125 49.0494 85.2129 49.0758C85.2132 49.1022 85.2201 49.1281 85.2329 49.1513C86.4872 51.2312 87.3692 53.514 87.8391 55.8969C87.4252 60.4119 87.2489 62.336 87.1645 63.2711C86.4593 71.7032 83.5541 78.7095 78.8781 85.7694C77.8304 87.2512 76.9511 88.8453 76.2565 90.522C73.6733 82.4042 67.2802 74.8001 68.8977 66.1764C69.0319 66.1218 69.1703 66.0782 69.3116 66.0461C69.3116 66.1636 69.3346 66.2632 69.3806 66.345C69.3861 66.3732 69.3972 66.4 69.4131 66.4239C69.429 66.4479 69.4494 66.4684 69.4733 66.4844C69.4971 66.5004 69.5239 66.5116 69.552 66.5173C69.5802 66.523 69.6092 66.523 69.6374 66.5175C69.6656 66.5119 69.6924 66.5009 69.7163 66.485C69.7402 66.4691 69.7608 66.4487 69.7768 66.4248C69.7928 66.401 69.804 66.3742 69.8097 66.346C69.8153 66.3179 69.8154 66.2889 69.8099 66.2607V66.2147ZM74.9304 34.1576C74.5296 33.8324 74.0793 33.5736 73.5966 33.391C76.6628 33.1074 79.0315 32.2335 81.1241 29.7729C81.3541 29.8956 82.6572 30.5395 82.8565 30.6698C85.0795 34.1269 83.8607 35.5374 83.0482 39.7917C82.8029 41.0719 82.5576 42.4056 82.4196 43.5785C81.1495 43.9009 79.8436 44.0606 78.5332 44.0537C78.5945 43.4482 78.6252 42.7966 78.7095 42.168C78.8671 42.1046 78.9991 41.9906 79.0849 41.844C79.1707 41.6974 79.2053 41.5264 79.1834 41.358C79.1614 41.1895 79.0842 41.0331 78.9637 40.9134C78.8433 40.7936 78.6864 40.7172 78.5179 40.6962L69.3193 40.4739C69.1802 40.4824 69.046 40.5287 68.9312 40.6077C68.8165 40.6868 68.7254 40.7956 68.6679 40.9225C68.6103 41.0494 68.5885 41.1896 68.6046 41.3281C68.6208 41.4665 68.6744 41.5979 68.7597 41.7081C68.7063 42.9025 68.7447 44.0993 68.8747 45.2879C68.4895 45.095 68.0665 44.9896 67.6359 44.979C67.2052 44.9684 66.7776 45.0529 66.3834 45.2266C66.448 44.1647 66.4069 43.0991 66.2607 42.0454C66.3653 41.9487 66.4431 41.8267 66.4867 41.6912C66.5303 41.5557 66.5383 41.4112 66.5098 41.2717C66.4812 41.1323 66.4172 41.0025 66.3239 40.895C66.2306 40.7874 66.1112 40.7058 65.9771 40.6579C65.9005 40.6579 66.0231 40.6579 61.1095 40.5353C61.1708 39.0022 61.1938 34.7478 61.8761 32.6705C65.7855 35.591 70.5458 36.5032 74.9074 34.4029C74.9361 34.3789 74.9544 34.3449 74.9587 34.3078C74.963 34.2707 74.9529 34.2334 74.9304 34.2036V34.1576ZM78.2266 42.2293C78.0273 43.4175 78.1116 44.667 77.6747 45.7785C77.22 46.9146 76.3447 47.8315 75.231 48.3384C74.1172 48.8453 72.8509 48.9031 71.6956 48.4997C71.13 48.3094 70.6305 47.9616 70.2557 47.4972C69.8809 47.0328 69.6465 46.4711 69.5799 45.8781C69.3907 44.6097 69.3112 43.3274 69.3423 42.0454C70.5841 42.1604 77.0614 42.2523 78.2266 42.2753V42.2293ZM65.7395 42.2293C65.9465 44.161 66.0538 47.5952 64.3367 48.5457C63.8265 48.7672 63.2755 48.8795 62.7193 48.8753C62.2329 48.9176 61.743 48.8944 61.2628 48.8063C60.7671 48.7243 60.3037 48.5069 59.9236 48.1782C59.5435 47.8496 59.2616 47.4223 59.1088 46.9436C58.746 45.3375 58.5965 43.6906 58.6642 42.0454L65.7395 42.2293ZM76.3792 99.483C74.5625 96.5854 68.2231 86.7736 66.552 84.3206C68.0378 83.0078 69.6867 81.8922 71.4579 81.0014C71.9715 81.9826 75.2907 88.7973 75.9729 91.5262C75.9905 91.5868 76.0273 91.6401 76.0777 91.678C76.1282 91.7159 76.1896 91.7364 76.2527 91.7364C76.3158 91.7364 76.3772 91.7159 76.4277 91.678C76.4782 91.6401 76.5149 91.5868 76.5325 91.5262C77.6057 87.3715 80.2503 85.4934 83.3471 79.0391C85.091 80.0142 86.6777 81.2469 88.0538 82.6955C86.6203 85.2175 78.9548 96.4858 76.3792 99.5213V99.483ZM90.4531 83.83C86.0071 79.683 84.1903 78.7325 83.6308 78.5178C85.7861 74.0088 87.1624 69.1673 87.7011 64.1987C89.9241 65.9234 92.2238 67.6175 94.2781 69.4955C93.8335 71.5882 91.3959 80.9325 90.4531 83.83ZM93.8642 23.6482C113.312 32.4635 123.76 53.4286 116.378 75.6969C112.599 74.0642 98.0572 69.6258 94.7304 69.1123C93.7952 68.2231 89.3646 64.7812 87.7778 63.5778C87.7778 63.2098 87.7165 64.283 88.3297 56.8398C88.3297 56.7555 90.0391 48.2544 90.7597 46.3994C91.1459 45.4183 91.6152 44.472 92.1625 43.5708C93.0584 41.9504 93.331 40.0584 92.929 38.251C92.7793 37.6772 92.5189 37.1381 92.1625 36.6642C92.9406 35.9019 93.4743 34.9252 93.6956 33.8586C93.9025 32.2412 93.0976 30.6698 92.3158 29.313C92.8915 28.4068 93.2193 27.3654 93.2663 26.2928C93.2453 25.886 93.1298 25.4897 92.929 25.1353C93.3303 24.7076 93.6383 24.2012 93.8335 23.6482H93.8642ZM62.221 21.6628C64.5207 18.405 69.12 19.2252 73.0064 20.0071C77.7021 20.9646 82.2707 22.4643 86.6203 24.476C86.6691 24.5015 86.726 24.5064 86.7785 24.4899C86.8309 24.4734 86.8747 24.4367 86.9001 24.3879C86.9255 24.3391 86.9305 24.2822 86.914 24.2297C86.8974 24.1773 86.8607 24.1335 86.8119 24.1081C82.6063 22.04 78.1629 20.4954 73.5813 19.5088C71.3966 19.0412 68.7827 18.497 66.5137 18.7423C69.1271 16.2841 72.4519 14.7169 76.0113 14.2656C78.4412 13.959 79.1388 14.4572 79.798 13.637C80.1252 13.1838 80.5495 12.8093 81.0398 12.5409C82.3046 11.8816 84.152 11.7743 86.3597 13.0315C87.5513 13.7138 88.6913 14.4824 89.7708 15.3311C90.8528 16.114 91.8114 17.0545 92.6147 18.1213C93.369 19.1175 93.7317 20.3558 93.6342 21.6015C93.598 22.6955 93.211 23.749 92.5304 24.6064C92.2306 24.2602 91.9024 23.9397 91.5492 23.6482C89.7248 22.1151 83.5924 17.7917 82.3506 17.0328C82.2988 17.0003 82.2361 16.9897 82.1765 17.0034C82.1168 17.017 82.065 17.0538 82.0325 17.1057C82 17.1575 81.9894 17.2202 82.003 17.2798C82.0167 17.3395 82.0535 17.3913 82.1053 17.4238C83.8454 18.5123 89.2112 22.529 90.5374 23.6558C91.3959 24.3687 92.2238 25.0126 92.4691 25.7715C92.837 26.9443 92.1625 28.0712 91.7025 29.1597C91.6794 29.2108 91.6729 29.2678 91.6839 29.3228C91.6949 29.3778 91.7229 29.428 91.7638 29.4663C92.4537 30.7081 93.251 32.4482 93.0287 33.8586C92.8144 34.7323 92.3604 35.5288 91.7179 36.1583C88.575 32.4175 81.0858 28.2245 76.1032 26.3464C70.2621 24.1158 62.8879 24.1081 60.8796 24.9436C61.0834 23.7657 61.5412 22.6462 62.221 21.6628ZM60.6879 23.1269C60.4455 23.8439 60.276 24.5836 60.182 25.3346C59.5918 25.5799 59.0628 26.5764 58.6489 28.1785C58.1506 30.3095 57.7137 32.1492 58.7792 33.9506C59.2605 34.7367 59.9329 35.388 60.7339 35.844C60.6419 36.6105 60.4043 39.4084 60.4273 40.5736L58.4113 40.5276H58.3576C58.2079 40.5572 58.0705 40.6308 57.9629 40.739C57.8553 40.8472 57.7824 40.985 57.7536 41.1348C57.7248 41.2846 57.7414 41.4397 57.8012 41.58C57.861 41.7204 57.9613 41.8397 58.0893 41.9227C58.0555 43.5708 58.1529 45.219 58.3806 46.8516C58.4971 47.4394 58.7733 47.9836 59.1791 48.4245C59.5848 48.8653 60.1042 49.1858 60.6803 49.3506C60.4669 52.1141 61.027 54.8824 62.2977 57.3457C63.487 59.6472 65.4856 61.4274 67.9088 62.3436C68.6754 62.5966 68.6754 62.5659 68.752 62.9799C68.752 62.9799 69.074 64.9116 69.1813 65.4941C66.9182 65.8685 64.8603 67.0305 63.3708 68.775C54.4608 70.4694 45.943 73.8042 38.251 78.6098C36.0605 73.4944 34.9043 67.996 34.8491 62.4316C34.7939 56.8672 35.8408 51.3469 37.9295 46.1891C40.0181 41.0313 43.1072 36.3379 47.0185 32.3797C50.9298 28.4216 55.586 25.2768 60.7186 23.1269H60.6879ZM36.7946 10.5555C37.2468 10.5095 37.1932 9.82728 36.7946 9.88093C35.0008 9.93459 28.1249 10.1646 26.2698 10.1492C26.2189 10.1588 26.1729 10.1859 26.1398 10.2258C26.1067 10.2657 26.0886 10.3159 26.0886 10.3677C26.0886 10.4195 26.1067 10.4697 26.1398 10.5096C26.1729 10.5495 26.2189 10.5766 26.2698 10.5862C27.9869 10.6705 35.0468 10.7318 36.7946 10.5555ZM36.028 12.3646C35.3304 12.3646 27.9792 12.9395 26.5075 12.9625C26.4485 12.9625 26.392 12.9859 26.3503 13.0276C26.3086 13.0693 26.2852 13.1258 26.2852 13.1848C26.2852 13.2437 26.3086 13.3003 26.3503 13.342C26.392 13.3836 26.4485 13.4071 26.5075 13.4071C27.7033 13.4071 35.1925 13.2078 36.1047 13.0315C36.1865 13.0138 36.2588 12.9663 36.3075 12.8982C36.3563 12.8302 36.378 12.7464 36.3684 12.6633C36.3589 12.5801 36.3187 12.5035 36.2558 12.4483C36.1929 12.3931 36.1117 12.3632 36.028 12.3646ZM37.2468 15.3924C37.2468 15.3924 27.8412 15.745 26.9444 15.7527C26.8858 15.763 26.8327 15.7937 26.7945 15.8392C26.7563 15.8848 26.7353 15.9424 26.7353 16.0018C26.7353 16.0613 26.7563 16.1189 26.7945 16.1645C26.8327 16.21 26.8858 16.2406 26.9444 16.251C30.3939 16.251 33.8433 16.3813 37.2698 16.1053C37.3552 16.0903 37.4323 16.0449 37.4869 15.9776C37.5416 15.9103 37.5701 15.8256 37.5673 15.7389C37.5645 15.6523 37.5306 15.5695 37.4717 15.5059C37.4128 15.4422 37.333 15.402 37.2468 15.3924ZM88.92 129.716L88.3527 129.424C88.3329 129.413 88.3104 129.407 88.2876 129.407C88.2647 129.407 88.2422 129.413 88.2224 129.424C87.4797 130.055 86.8833 130.84 86.4747 131.724C86.4634 131.752 86.4626 131.783 86.4725 131.811C86.4824 131.839 86.5022 131.863 86.5283 131.877C87.0758 132.162 87.6822 132.314 88.2991 132.322C90.3381 132.322 91.6259 130.574 92.7757 128.949C93.7722 127.523 95.0217 125.753 94.4008 124.036C94.1882 123.462 93.819 122.96 93.3353 122.587C93.3155 122.568 93.2894 122.558 93.2625 122.558C93.2355 122.558 93.2095 122.568 93.1896 122.587C92.398 123.188 91.7706 123.979 91.3653 124.886C91.3527 124.904 91.346 124.926 91.346 124.948C91.346 124.97 91.3527 124.991 91.3653 125.009L91.9862 125.599C91.2693 127.174 90.2239 128.578 88.92 129.716ZM87.0112 128.704C86.4888 129.295 86.0194 129.931 85.6085 130.605C85.4092 131.042 85.9917 131.256 86.145 130.988C86.5735 130.327 87.0447 129.695 87.5555 129.095C87.7165 128.926 87.3869 128.451 87.0112 128.704ZM90.8747 124.327C90.9228 124.328 90.9707 124.319 91.0145 124.299C91.0584 124.279 91.0971 124.249 91.1276 124.212C91.5587 123.553 92.0297 122.92 92.5381 122.318C92.7067 122.142 92.3771 121.675 91.9862 121.935C91.4689 122.524 91.0046 123.158 90.5987 123.829C90.5692 123.878 90.5532 123.934 90.5523 123.992C90.5514 124.05 90.5656 124.107 90.5935 124.157C90.6214 124.207 90.6621 124.25 90.7114 124.279C90.7608 124.309 90.817 124.326 90.8747 124.327ZM113.741 114.515C113.79 114.516 113.838 114.505 113.882 114.484C113.926 114.462 113.964 114.431 113.994 114.392C114.024 114.354 114.044 114.309 114.053 114.261C114.063 114.213 114.061 114.163 114.047 114.116L114.224 108.751C114.224 108.337 114.262 107.823 113.787 107.555C113.312 107.286 38.297 107.11 38.3813 107.11C38.355 107.111 38.3293 107.119 38.3066 107.132C38.2839 107.146 38.2648 107.164 38.251 107.187C38.0153 109.222 37.9205 111.271 37.9674 113.319C38.0571 113.505 38.2013 113.659 38.3807 113.76C38.5602 113.861 38.7663 113.905 38.9716 113.886C40.0217 113.886 113.741 114.515 113.741 114.515ZM113.588 108.766C113.588 108.942 113.588 108.835 113.45 113.863C109.862 113.756 39.2782 113.204 38.7493 113.174C38.5116 113.089 38.5116 112.859 38.527 112.499L38.6726 107.754C42.4364 107.861 113.105 108.045 113.396 108.068C113.687 108.091 113.611 108.406 113.588 108.766ZM45.0273 136.875C45.1168 136.875 45.2025 136.84 45.2658 136.776C45.329 136.713 45.3646 136.627 45.3646 136.538C45.3646 136.449 45.329 136.363 45.2658 136.299C45.2025 136.236 45.1168 136.201 45.0273 136.201C43.3102 136.3 36.3576 136.492 34.5026 136.469C34.4516 136.479 34.4057 136.506 34.3726 136.546C34.3395 136.585 34.3214 136.636 34.3214 136.687C34.3214 136.739 34.3395 136.789 34.3726 136.829C34.4057 136.869 34.4516 136.896 34.5026 136.906C36.212 136.99 43.2566 137.044 45.0273 136.875ZM44.2224 138.684C43.5325 138.684 36.1813 139.259 34.7019 139.282C34.6429 139.282 34.5864 139.306 34.5447 139.347C34.503 139.389 34.4796 139.446 34.4796 139.505C34.4796 139.564 34.503 139.62 34.5447 139.662C34.5864 139.703 34.6429 139.727 34.7019 139.727C36.0893 139.727 43.4175 139.52 44.2991 139.351C44.3809 139.334 44.4532 139.286 44.502 139.218C44.5507 139.15 44.5724 139.066 44.5629 138.983C44.5533 138.9 44.5132 138.823 44.4502 138.768C44.3873 138.713 44.3061 138.683 44.2224 138.684ZM45.4642 141.72C45.4642 141.72 36.074 142.065 35.1541 142.072C35.0956 142.083 35.0425 142.113 35.0042 142.159C34.966 142.205 34.945 142.262 34.945 142.322C34.945 142.381 34.966 142.439 35.0042 142.484C35.0425 142.53 35.0956 142.56 35.1541 142.571C38.5883 142.571 42.0531 142.701 45.4719 142.425C45.5182 142.425 45.564 142.415 45.6065 142.397C45.6491 142.379 45.6877 142.352 45.7201 142.319C45.7525 142.286 45.778 142.247 45.7953 142.204C45.8126 142.161 45.8212 142.115 45.8207 142.069C45.8202 142.022 45.8106 141.977 45.7924 141.934C45.7742 141.891 45.7478 141.853 45.7147 141.82C45.6816 141.788 45.6424 141.763 45.5995 141.745C45.5565 141.728 45.5105 141.719 45.4642 141.72ZM69.4419 136.875C69.5314 136.875 69.6172 136.84 69.6804 136.776C69.7437 136.713 69.7792 136.627 69.7792 136.538C69.7792 136.449 69.7437 136.363 69.6804 136.299C69.6172 136.236 69.5314 136.201 69.4419 136.201C67.7095 136.293 60.7646 136.492 58.9172 136.469C58.8663 136.479 58.8203 136.506 58.7872 136.546C58.7541 136.585 58.736 136.636 58.736 136.687C58.736 136.739 58.7541 136.789 58.7872 136.829C58.8203 136.869 58.8663 136.896 58.9172 136.906C60.6343 136.99 67.6635 137.044 69.4419 136.875ZM68.637 138.684C67.9471 138.684 60.5959 139.259 59.1165 139.282C59.0575 139.282 59.001 139.306 58.9593 139.347C58.9176 139.389 58.8942 139.446 58.8942 139.505C58.8942 139.564 58.9176 139.62 58.9593 139.662C59.001 139.703 59.0575 139.727 59.1165 139.727C60.4963 139.727 67.8245 139.52 68.706 139.351C68.7872 139.334 68.859 139.287 68.9077 139.22C68.9564 139.152 68.9786 139.069 68.9701 138.987C68.9615 138.904 68.9228 138.828 68.8614 138.772C68.7999 138.716 68.7201 138.685 68.637 138.684ZM69.8865 141.72C69.8865 141.72 60.4886 142.065 59.5764 142.072C59.5178 142.083 59.4648 142.113 59.4265 142.159C59.3883 142.205 59.3673 142.262 59.3673 142.322C59.3673 142.381 59.3883 142.439 59.4265 142.484C59.4648 142.53 59.5178 142.56 59.5764 142.571C63.0106 142.571 66.4754 142.701 69.8942 142.425C69.9877 142.424 70.077 142.386 70.1424 142.319C70.2078 142.252 70.244 142.162 70.243 142.069C70.2419 141.975 70.2038 141.886 70.137 141.82C70.0701 141.755 69.98 141.719 69.8865 141.72ZM94.6078 136.875C94.6972 136.875 94.783 136.84 94.8462 136.776C94.9095 136.713 94.945 136.627 94.945 136.538C94.945 136.449 94.9095 136.363 94.8462 136.299C94.783 136.236 94.6972 136.201 94.6078 136.201C92.8754 136.3 85.9381 136.492 84.0754 136.469C84.0244 136.479 83.9784 136.506 83.9454 136.546C83.9123 136.585 83.8942 136.636 83.8942 136.687C83.8942 136.739 83.9123 136.789 83.9454 136.829C83.9784 136.869 84.0244 136.896 84.0754 136.906C85.8001 136.99 92.8294 137.044 94.6078 136.875ZM93.8029 138.684C93.1206 138.684 85.7618 139.259 84.29 139.282C84.231 139.282 84.1745 139.306 84.1328 139.347C84.0911 139.389 84.0677 139.446 84.0677 139.505C84.0677 139.564 84.0911 139.62 84.1328 139.662C84.1745 139.703 84.231 139.727 84.29 139.727C85.6698 139.727 92.998 139.52 93.8872 139.351C93.9699 139.334 94.043 139.286 94.092 139.217C94.141 139.148 94.1623 139.063 94.1517 138.979C94.1411 138.895 94.0994 138.818 94.0347 138.764C93.9701 138.709 93.8874 138.681 93.8029 138.684ZM95.0524 141.72C95.0524 141.72 85.6545 142.065 84.7423 142.072C84.6837 142.083 84.6306 142.113 84.5924 142.159C84.5541 142.205 84.5332 142.262 84.5332 142.322C84.5332 142.381 84.5541 142.439 84.5924 142.484C84.6306 142.53 84.6837 142.56 84.7423 142.571C88.1764 142.571 91.6412 142.701 95.06 142.425C95.1535 142.424 95.2428 142.386 95.3082 142.319C95.3736 142.252 95.4098 142.162 95.4088 142.069C95.4078 141.975 95.3697 141.886 95.3028 141.82C95.236 141.755 95.1459 141.719 95.0524 141.72ZM119.084 136.875C119.173 136.875 119.259 136.84 119.322 136.776C119.385 136.713 119.421 136.627 119.421 136.538C119.421 136.449 119.385 136.363 119.322 136.299C119.259 136.236 119.173 136.201 119.084 136.201C117.367 136.293 110.414 136.492 108.551 136.469C108.5 136.479 108.454 136.506 108.421 136.546C108.388 136.585 108.37 136.636 108.37 136.687C108.37 136.739 108.388 136.789 108.421 136.829C108.454 136.869 108.5 136.896 108.551 136.906C110.276 136.99 117.282 137.044 119.084 136.875ZM118.279 138.684C117.597 138.684 110.238 139.259 108.766 139.282C108.707 139.282 108.65 139.306 108.609 139.347C108.567 139.389 108.544 139.446 108.544 139.505C108.544 139.564 108.567 139.62 108.609 139.662C108.65 139.703 108.707 139.727 108.766 139.727C110.146 139.727 117.474 139.52 118.363 139.351C118.446 139.334 118.519 139.286 118.568 139.217C118.617 139.148 118.638 139.063 118.628 138.979C118.617 138.895 118.575 138.818 118.511 138.764C118.446 138.709 118.363 138.681 118.279 138.684ZM119.528 141.72C119.528 141.72 110.13 142.065 109.218 142.072C109.16 142.083 109.107 142.113 109.068 142.159C109.03 142.205 109.009 142.262 109.009 142.322C109.009 142.381 109.03 142.439 109.068 142.484C109.107 142.53 109.16 142.56 109.218 142.571C112.645 142.571 116.117 142.701 119.536 142.425C119.629 142.424 119.719 142.386 119.784 142.319C119.85 142.252 119.886 142.162 119.885 142.069C119.884 141.975 119.846 141.886 119.779 141.82C119.712 141.755 119.622 141.719 119.528 141.72ZM46.6141 132.652L44.8357 132.613C44.8357 131.709 44.7743 129.378 44.7437 128.658C44.9747 128.465 45.1238 128.191 45.1608 127.892C45.1978 127.593 45.1199 127.292 44.943 127.048C44.874 126.948 44.943 126.971 42.7736 127.048V125.515C42.9084 125.324 42.999 125.105 43.0388 124.874C43.0785 124.643 43.0665 124.407 43.0036 124.181C42.9949 124.147 42.975 124.118 42.9471 124.097C42.9193 124.076 42.8851 124.065 42.8503 124.066L40.1214 124.151C40.0754 123.568 39.8761 121.475 39.7994 121.337C39.7472 121.238 39.6597 121.161 39.5541 121.123C40.5047 119.751 39.0099 119.268 39.3012 118.562C39.4238 118.263 38.9792 118.056 38.8029 118.332C38.3719 118.91 38.0402 119.555 37.8217 120.241C37.8284 120.445 37.8851 120.643 37.9867 120.82C38.0883 120.996 38.2317 121.145 38.4043 121.253C38.2931 121.297 38.1992 121.377 38.137 121.479C38.0748 121.581 38.0475 121.701 38.0594 121.82V124.204L35.8747 124.273C35.8432 124.274 35.8127 124.284 35.7878 124.304C35.7629 124.323 35.745 124.35 35.7367 124.381C35.6524 124.627 35.632 124.89 35.6776 125.146C35.7232 125.402 35.8332 125.643 35.9973 125.845C35.9973 126.282 36.051 126.879 36.097 127.309C33.8893 127.401 33.9736 127.37 33.9047 127.447C33.3527 128.106 33.0001 129.248 33.6517 129.746V132.529H32.3639C32.3009 132.529 32.2404 132.554 32.1959 132.599C32.1513 132.643 32.1263 132.704 32.1263 132.767C32.1263 132.83 32.1513 132.89 32.1959 132.935C32.2404 132.979 32.3009 133.004 32.3639 133.004C32.4482 133.004 46.5144 133.173 46.6447 133.158C46.7118 133.153 46.7745 133.123 46.8191 133.073C46.8637 133.022 46.8864 132.956 46.8824 132.889C46.8783 132.822 46.8477 132.759 46.7974 132.715C46.7471 132.67 46.6811 132.648 46.6141 132.652ZM39.5695 124.181H38.6113V121.759C38.8598 121.684 39.1183 121.648 39.3778 121.652C39.3932 121.974 39.5311 123.683 39.5695 124.181ZM38.389 120.195C38.5262 119.889 38.6877 119.594 38.8719 119.314C39.1249 119.804 39.4928 120.08 39.2782 120.563C39.1858 120.731 39.0753 120.887 38.9486 121.031C38.6113 120.793 38.3277 120.517 38.389 120.18V120.195ZM38.2203 125.599C38.3235 125.817 38.4863 126.001 38.6899 126.13C38.8934 126.258 39.1293 126.327 39.3702 126.327C39.611 126.327 39.8469 126.258 40.0505 126.13C40.254 126.001 40.4168 125.817 40.52 125.599C40.7272 125.798 40.9831 125.937 41.2617 126.005C41.5404 126.072 41.832 126.064 42.1067 125.983V127.109L36.6336 127.324C36.6336 126.948 36.5953 126.558 36.5646 126.205C36.871 126.262 37.1872 126.235 37.479 126.125C37.7708 126.016 38.0272 125.829 38.2203 125.584V125.599ZM34.2266 132.498V129.915C34.5703 129.941 34.9154 129.892 35.2383 129.771C35.5612 129.651 35.8542 129.462 36.097 129.217C36.3782 129.47 36.7426 129.609 37.1203 129.609C37.498 129.609 37.8624 129.47 38.1437 129.217C39.0329 130.191 40.3667 129.739 41.1026 128.658C41.248 128.864 41.4381 129.035 41.6586 129.157C41.8792 129.28 42.1245 129.351 42.3764 129.366C42.6283 129.381 42.8803 129.339 43.1137 129.243C43.347 129.146 43.5557 128.999 43.7242 128.811C43.8865 128.854 44.0554 128.867 44.2224 128.849C44.2224 129.662 44.2224 131.716 44.2761 132.575C41.9228 132.56 35.7674 132.514 34.2266 132.514V132.498Z" fill="black"/>
<path d="M137.933 46.177C136.722 45.3185 137.58 45.4104 135.817 39.6077C135.219 37.6376 134.553 35.269 132.751 34.5101C132.751 28.7916 132.751 4.96727 132.79 4.15472C132.821 4.10333 132.838 4.04444 132.839 3.98416C132.84 3.92389 132.825 3.86444 132.795 3.812C132.766 3.75956 132.722 3.71606 132.67 3.68601C132.618 3.65596 132.559 3.64046 132.498 3.64113C118.01 3.64113 27.9485 4.04741 19.961 4.13939C19.9128 4.14039 19.8654 4.15278 19.8228 4.17555C19.7802 4.19832 19.7436 4.23083 19.716 4.27043C19.6883 4.31003 19.6704 4.3556 19.6637 4.40343C19.657 4.45126 19.6617 4.49999 19.6774 4.54566C19.4858 14.6258 19.2098 69.6641 19.1408 90.6522C15.0733 94.2251 11.8792 98.6831 9.80426 103.684C6.0635 112.829 5.8412 119.781 9.15269 124.25C11.345 127.24 15.722 130.597 19.1945 129.056C19.0872 143.667 19.0565 147.937 19.1408 149.171C19.1792 149.746 19.2482 149.661 19.3325 149.661C19.4168 149.661 127.47 149.462 132.261 149.408C132.321 149.408 132.379 149.392 132.431 149.361C132.482 149.33 132.524 149.285 132.552 149.232C132.59 149.155 132.759 114.975 132.889 105.907C133.824 105.881 134.741 105.64 135.568 105.203C136.395 104.765 137.11 104.143 137.657 103.385C139.534 101.036 141.082 98.441 142.256 95.6731C143.989 91.1122 145.238 87.8237 145.967 82.7261C147.576 71.4961 145.162 59.2313 140.309 49.0592C139.443 47.2272 139.566 47.3345 137.933 46.177ZM16.8642 123.921C15.4231 123.254 14.1123 120.249 14.6412 117.658C15.0582 115.956 16.0026 114.429 17.3394 113.296C17.9501 112.691 18.6204 112.149 19.3401 111.679V114.323C18.7663 114.717 18.2503 115.189 17.807 115.726C17.7726 115.78 17.7595 115.846 17.7702 115.909C17.781 115.973 17.8148 116.03 17.8653 116.07C17.9158 116.11 17.9792 116.13 18.0435 116.126C18.1078 116.122 18.1682 116.094 18.2133 116.048C18.9666 115.305 19.8334 114.686 20.7813 114.216C21.4482 113.917 21.5861 114.055 21.4252 114.676C21.2866 115.423 20.9196 116.109 20.375 116.638C19.8313 117.076 19.2303 117.437 18.5889 117.711C18.2418 117.86 17.9127 118.048 17.6077 118.271C17.5672 118.312 17.5428 118.365 17.5388 118.423C17.5348 118.48 17.5517 118.536 17.5862 118.582C17.6208 118.628 17.6707 118.66 17.7267 118.671C17.7828 118.683 17.8413 118.674 17.8914 118.647C18.5046 118.24 20.4286 117.642 21.4865 116.899C22.253 116.37 22.322 116.769 22.0614 117.558C21.5248 119.145 19.6621 119.965 18.4279 120.962C18.3851 121.005 18.3586 121.062 18.3533 121.122C18.3479 121.183 18.3638 121.243 18.3984 121.293C18.433 121.343 18.484 121.38 18.5426 121.396C18.6012 121.413 18.6637 121.408 18.7192 121.383C19.0642 121.192 19.4091 120.954 19.8997 120.617C20.3903 120.279 21.7778 119.582 22.2837 119.85C22.3408 119.876 22.3893 119.919 22.4232 119.972C22.4572 120.025 22.4753 120.086 22.4753 120.149C22.552 120.701 22.0921 121.238 21.6245 121.835C19.4781 124.58 17.7074 124.327 16.8642 123.921ZM131.962 148.711C125.293 148.749 24.9283 149.002 19.7081 149.063C19.7694 146.879 19.7081 133.065 19.7464 124.342C20.7882 123.55 21.7486 122.657 22.6133 121.675C22.8279 121.376 23.4948 120.341 22.9736 119.528C22.8572 119.354 22.6914 119.218 22.4974 119.139C22.3034 119.06 22.0902 119.041 21.8851 119.084C22.4139 118.534 22.7478 117.825 22.8356 117.068C22.8356 116.83 22.9046 116.301 22.4523 116.079C22.294 116.027 22.1258 116.012 21.9609 116.036C21.796 116.06 21.6389 116.122 21.5018 116.217C21.5708 116.109 21.6245 116.002 21.6858 115.887C21.9617 115.343 22.345 114.093 22.0384 113.633C21.6168 113.012 20.5436 113.526 19.8997 113.909C19.9457 42.3136 20.3137 16.6878 20.2753 4.7373C27.6879 4.7373 127.523 4.33103 132.192 4.30037C132.13 8.55472 132.031 37.8293 132.031 37.8293C130.758 38.0386 129.539 38.497 128.443 39.1784C128.144 39.323 127.893 39.5522 127.723 39.8376C127.665 39.9377 127.629 40.049 127.617 40.1641C127.606 40.2791 127.619 40.3954 127.656 40.5049C127.693 40.6145 127.753 40.7149 127.832 40.7994C127.911 40.884 128.007 40.9507 128.114 40.9951C127.799 41.1842 127.536 41.4474 127.347 41.7617C127.27 42.0594 127.306 42.3749 127.448 42.6478C127.589 42.9208 127.826 43.132 128.114 43.2411C127.301 43.9693 127.462 45.2495 129.102 45.4871C130.101 45.6272 131.117 45.5831 132.1 45.3568C132.552 52.1254 131.885 144.38 131.962 148.711ZM132.882 46.9972C132.836 46.4376 132.782 45.8474 132.713 45.2188C133.204 45.0698 133.681 44.8774 134.139 44.6439C134.461 44.4829 134.2 44 133.878 44.161C132.658 44.7279 131.32 44.9909 129.976 44.9275C129.478 44.9275 128.642 44.9275 128.443 44.4446C128.244 43.9617 128.727 43.6014 129.056 43.5094C130.503 43.7258 131.98 43.4562 133.257 42.7428C133.318 42.7103 133.364 42.6549 133.384 42.5888C133.404 42.5226 133.397 42.4512 133.364 42.3902C133.332 42.3292 133.276 42.2837 133.21 42.2635C133.144 42.2434 133.073 42.2504 133.012 42.2829C131.859 42.8366 130.569 43.0392 129.302 42.8655C128.397 42.7428 127.976 42.4899 127.991 42.0989C127.991 41.915 128.757 41.3324 129.064 41.2021C130.422 41.3948 131.8 41.3948 133.157 41.2021C133.502 41.1561 133.456 40.6272 133.111 40.6732C132.084 40.8035 128.788 40.7192 128.474 40.4432C128.441 40.4216 128.413 40.3921 128.394 40.3573C128.376 40.3225 128.366 40.2835 128.366 40.2439C128.366 40.2043 128.376 40.1653 128.394 40.1305C128.413 40.0957 128.441 40.0662 128.474 40.0446C129.286 39.2014 132.184 38.3505 132.958 38.2279C133.019 38.2208 133.075 38.1897 133.113 38.1415C133.151 38.0934 133.168 38.0321 133.161 37.9711C133.154 37.9101 133.123 37.8544 133.075 37.8163C133.027 37.7782 132.965 37.7608 132.905 37.7679H132.774V35.154C134.154 35.9742 134.691 37.8523 135.12 39.37C137.052 46.108 135.948 45.6634 137.918 46.9895C138.232 47.1886 138.525 47.4198 138.792 47.6794C136.837 48.8906 134.622 48.446 132.882 47.0202V46.9972Z" fill="black"/>
<path d="M82.3658 84.0063C82.1884 84.0063 82.015 84.0589 81.8676 84.1575C81.7201 84.256 81.6051 84.3961 81.5372 84.56C81.4694 84.7239 81.4516 84.9042 81.4862 85.0782C81.5208 85.2522 81.6062 85.412 81.7316 85.5374C81.8571 85.6628 82.0169 85.7482 82.1909 85.7828C82.3648 85.8174 82.5452 85.7997 82.709 85.7318C82.8729 85.6639 83.013 85.549 83.1115 85.4015C83.2101 85.254 83.2627 85.0806 83.2627 84.9032C83.2627 84.6654 83.1682 84.4372 83 84.269C82.8318 84.1008 82.6037 84.0063 82.3658 84.0063ZM79.7212 88.391C79.5241 88.391 79.3315 88.4495 79.1676 88.559C79.0037 88.6685 78.876 88.8241 78.8006 89.0062C78.7251 89.1883 78.7054 89.3886 78.7439 89.5819C78.7823 89.7752 78.8772 89.9528 79.0166 90.0922C79.156 90.2315 79.3335 90.3264 79.5268 90.3649C79.7201 90.4033 79.9205 90.3836 80.1026 90.3082C80.2847 90.2328 80.4403 90.105 80.5498 89.9412C80.6593 89.7773 80.7177 89.5846 80.7177 89.3875C80.7177 89.1232 80.6127 88.8698 80.4259 88.6829C80.239 88.496 79.9855 88.391 79.7212 88.391ZM77.3449 92.2391C77.1933 92.2391 77.0451 92.2841 76.919 92.3683C76.793 92.4525 76.6947 92.5722 76.6367 92.7123C76.5787 92.8524 76.5635 93.0065 76.5931 93.1552C76.6227 93.3039 76.6957 93.4405 76.8029 93.5477C76.9101 93.6549 77.0467 93.7279 77.1954 93.7575C77.3441 93.787 77.4982 93.7719 77.6383 93.7138C77.7783 93.6558 77.8981 93.5576 77.9823 93.4315C78.0665 93.3055 78.1115 93.1573 78.1115 93.0056C78.1115 92.8023 78.0307 92.6074 77.887 92.4636C77.7432 92.3199 77.5482 92.2391 77.3449 92.2391Z" fill="black"/>
</svg>
