<svg width="640" height="670" viewBox="0 0 640 670" fill="none" xmlns="http://www.w3.org/2000/svg">
<path fill-rule="evenodd" clip-rule="evenodd" d="M135.168 383.576C152.384 386.926 164.544 380.628 170.816 379.187C172.64 378.785 180.704 382.537 193.44 382.537C197.095 382.342 200.676 381.386 203.973 379.723C207.27 378.061 210.216 375.726 212.64 372.856C213.056 372.353 212.288 371.717 211.872 372.219C206.935 377.308 200.304 380.191 193.376 380.259C186.64 379.953 179.96 378.829 173.472 376.909C169.088 375.871 169.76 377.144 158.656 380.259C151.071 382.422 143.147 382.957 135.36 381.834C125.504 380.36 123.648 378.048 123.232 379.221C123.189 379.35 123.195 379.491 123.249 379.615C123.302 379.74 123.399 379.838 123.52 379.891C127.283 381.5 131.183 382.734 135.168 383.576ZM360.16 338.351C374.272 337.178 385.76 324.147 384.704 316.274C384.723 316.195 384.725 316.112 384.709 316.032C384.693 315.952 384.66 315.877 384.612 315.812C384.564 315.748 384.503 315.696 384.433 315.66C384.363 315.624 384.286 315.605 384.208 315.605C384.13 315.605 384.053 315.624 383.983 315.66C383.913 315.696 383.851 315.748 383.803 315.812C383.756 315.877 383.722 315.952 383.707 316.032C383.691 316.112 383.693 316.195 383.712 316.274C383.2 319.357 381.792 322.2 379.68 324.414C375.275 329.522 369.798 333.489 363.68 336.006C359.936 337.58 359.392 337.145 359.52 337.915C359.525 337.992 359.548 338.067 359.586 338.133C359.623 338.2 359.675 338.256 359.737 338.299C359.799 338.341 359.869 338.367 359.943 338.376C360.016 338.385 360.09 338.377 360.16 338.351ZM87.7759 394.262C87.8989 394.218 88.0001 394.124 88.0571 394.001C88.1141 393.879 88.1223 393.738 88.0799 393.609C88.0374 393.48 87.9478 393.374 87.8308 393.314C87.7138 393.255 87.5789 393.246 87.4559 393.291C79.5686 395.079 71.4071 395.079 63.5199 393.291C60.1279 392.386 59.9359 391.649 59.5839 392.319C59.5218 392.436 59.5038 392.573 59.5335 392.703C59.5631 392.833 59.6381 392.947 59.7439 393.023C67.1999 398.651 79.6479 398.416 87.7759 394.262ZM479.168 149.377C480.224 149.745 479.168 148.238 484.448 138.389C495.168 118.054 514.432 100.232 533.984 88.809C541.888 84.186 542.56 84.655 542.24 83.8175C542.178 83.6949 542.076 83.6 541.952 83.5507C541.828 83.5013 541.692 83.5009 541.568 83.5495C508.96 96.9495 485.408 124.754 478.848 148.707C478.823 148.773 478.812 148.843 478.815 148.914C478.817 148.984 478.835 149.054 478.865 149.117C478.895 149.18 478.938 149.236 478.99 149.281C479.042 149.326 479.103 149.358 479.168 149.377ZM574.592 176.077C560.416 164.955 537.952 159.628 520.192 157.35C508.331 155.696 496.33 155.449 484.416 156.613C484.349 156.617 484.283 156.635 484.222 156.666C484.162 156.697 484.107 156.74 484.063 156.793C484.018 156.846 483.984 156.908 483.962 156.975C483.941 157.041 483.932 157.112 483.936 157.182C483.936 158.087 484.128 157.182 495.584 157.651C519.072 158.522 555.872 164.351 573.888 176.914C574.56 177.283 575.136 176.445 574.592 176.077ZM464 351.349C461.923 352.441 459.701 353.198 457.408 353.593C457.349 353.564 457.285 353.548 457.221 353.545C457.156 353.543 457.091 353.553 457.03 353.576C456.969 353.6 456.913 353.635 456.866 353.681C456.818 353.727 456.779 353.783 456.752 353.844C456.725 353.906 456.709 353.972 456.706 354.04C456.704 354.108 456.714 354.176 456.736 354.24C456.758 354.303 456.792 354.362 456.836 354.412C456.88 354.462 456.933 354.502 456.992 354.531C457.628 355.016 458.364 355.34 459.141 355.475C459.918 355.61 460.714 355.553 461.466 355.309C462.218 355.065 462.905 354.64 463.473 354.069C464.041 353.498 464.473 352.796 464.736 352.019C464.821 351.916 464.863 351.783 464.854 351.648C464.845 351.513 464.785 351.387 464.688 351.298C464.59 351.209 464.463 351.165 464.334 351.174C464.205 351.184 464.085 351.246 464 351.349ZM70.7519 498.916C64.7039 499.485 65.7599 502.266 71.8079 501.395C77.8559 500.524 74.6239 498.547 70.7519 498.916ZM165.536 486.454C164.9 486.505 164.269 486.606 163.648 486.756C160.192 487.761 160.96 489 164.384 489.067C171.04 489.101 171.424 485.985 165.536 486.454ZM67.4879 571.544C64.8639 571.544 61.5359 573.052 65.8879 573.99C66.9488 574.154 68.027 574.154 69.0879 573.99C73.5999 572.851 69.8559 571.477 67.4879 571.544ZM160.64 553.555C155.68 553.789 157.664 555.766 160.64 556.067C165.824 556.637 167.104 553.287 160.64 553.555ZM253.952 602.699C247.552 603.034 252.992 605.714 257.152 605.212C261.312 604.709 260.064 602.364 253.952 602.699ZM351.552 576.77C345.152 576.502 347.424 579.417 352.128 579.383C355.808 579.35 357.056 577.072 351.552 576.77ZM458.016 615.798C453.824 615.798 451.328 617.64 456.032 618.31C457.372 618.46 458.724 618.46 460.064 618.31C464.928 617.305 461.76 615.731 458.016 615.798ZM535.168 531.78C542.144 532.383 542.304 529.636 535.168 529.2C527.456 528.698 530.016 531.344 535.168 531.78ZM583.36 516.102C581.376 516.437 580.16 517.609 582.752 518.38C584.023 518.714 585.353 518.714 586.624 518.38C590.464 516.772 586.336 515.599 583.36 516.102ZM139.104 172.76C143.507 172.751 147.866 171.831 151.928 170.053C155.991 168.275 159.678 165.673 162.776 162.398C165.875 159.123 168.325 155.239 169.985 150.969C171.645 146.699 172.482 142.128 172.448 137.518C172.179 128.443 168.547 119.834 162.32 113.514C156.093 107.194 147.761 103.659 139.088 103.659C130.415 103.659 122.083 107.194 115.856 113.514C109.629 119.834 105.996 128.443 105.728 137.518C105.694 142.131 106.532 146.705 108.194 150.977C109.856 155.249 112.308 159.134 115.411 162.41C118.513 165.686 122.203 168.286 126.27 170.063C130.336 171.839 134.698 172.756 139.104 172.76ZM116.864 114.168C119.711 110.977 123.154 108.433 126.98 106.693C130.806 104.954 134.933 104.056 139.104 104.056C143.275 104.056 147.402 104.954 151.227 106.693C155.053 108.433 158.497 110.977 161.344 114.168C167.107 120.407 170.307 128.76 170.259 137.439C170.211 146.117 166.919 154.431 161.088 160.599C158.209 163.636 154.784 166.046 151.011 167.691C147.238 169.335 143.191 170.182 139.104 170.182C135.017 170.182 130.97 169.335 127.197 167.691C123.424 166.046 119.999 163.636 117.12 160.599C111.288 154.431 107.996 146.117 107.948 137.439C107.901 128.76 111.101 120.407 116.864 114.168ZM479.648 151.688L479.616 151.621V151.655L479.648 151.688ZM397.472 206.696C397.472 206.696 405.696 200.699 406.368 200.163C409.856 197.349 414.144 194.535 417.568 192.224C426.688 186.093 426.336 185.523 438.528 178.455C442.048 176.378 471.776 159.527 474.368 157.919C474.47 157.844 474.543 157.732 474.571 157.605C474.6 157.477 474.584 157.343 474.525 157.228C474.466 157.113 474.368 157.024 474.251 156.978C474.134 156.933 474.004 156.934 473.888 156.981C462.144 163.313 439.296 173.463 422.304 185.925C416.438 189.914 410.767 194.207 405.312 198.79C402.256 201.176 399.318 203.726 396.512 206.427C396.51 206.547 396.546 206.664 396.615 206.759C396.684 206.855 396.782 206.923 396.892 206.954C397.002 206.985 397.119 206.976 397.224 206.929C397.329 206.882 397.417 206.8 397.472 206.696ZM353.792 399.421C355.853 400.57 358.145 401.19 360.48 401.23C361.504 401.23 362.176 400.46 362.4 398.885C362.624 397.297 362.624 395.683 362.4 394.095C361.312 386.524 359.2 388.366 359.68 389.17C357.632 389.74 350.784 397.78 353.792 399.421ZM359.872 390.343C359.907 390.358 359.945 390.366 359.984 390.366C360.022 390.366 360.06 390.358 360.096 390.343C360.357 393.116 360.357 395.91 360.096 398.684C358.56 398.43 357.056 397.991 355.616 397.378C356.709 394.833 358.142 392.465 359.872 390.343Z" fill="black"/>
<path fill-rule="evenodd" clip-rule="evenodd" d="M529.216 190.95L536.672 183.144L540.352 193.764C540.608 194.501 537.984 193.228 576.544 209.944C577.152 210.212 576.768 210.212 586.144 206.594C587.424 218.018 587.296 217.817 587.712 218.286C590.272 221.133 610.432 243.545 613.312 246.124C618.784 251.183 630.752 215.472 619.264 196.477C595.968 158.12 566.4 146.629 523.584 143.38C515.136 142.777 496.32 146.294 487.968 147.969C506.72 136.814 505.888 137.752 505.824 136.914L505.216 128.037L513.152 129.109C513.664 129.109 510.368 131.454 564 93.9674C564.768 93.4314 564.576 93.9674 564.576 83.4149C572.064 81.9409 572.992 81.8069 573.312 81.6729C576.128 80.4334 598.24 70.9194 600.704 69.0434C601.007 68.8544 601.228 68.5509 601.324 68.1956C601.419 67.8403 601.38 67.4603 601.216 67.1339C592.416 50.9199 579.264 49.9149 561.984 53.1309C529.472 59.1274 508.288 81.0364 487.648 107.736C481.361 116.536 477.468 126.955 476.384 137.886C463.872 115.843 442.432 107.97 420.32 98.5904C387.776 84.8219 315.264 83.9844 285.312 105.96C271.254 115.957 259.953 129.647 252.544 145.658C252.288 146.194 252.224 147.366 253.728 147.802C259.072 149.343 306.976 147.802 312.544 147.802C313.312 147.802 313.344 147.232 319.872 142.107C320.32 143.882 320.864 146.529 321.152 148.137C321.212 148.432 321.371 148.695 321.6 148.879C321.828 149.064 322.112 149.157 322.4 149.142C372.32 147.031 369.28 147.333 369.76 146.797C369.76 146.797 375.04 140.532 377.44 138.053C377.746 138.987 378.003 139.938 378.208 140.901C379.584 147.232 378.88 148.137 380 148.505C390.048 151.855 411.424 158.555 422.048 161.168C390.496 171.687 371.68 183.245 352.32 211.988C345.278 223.218 339.784 235.432 336 248.268C333.652 248.025 331.293 248.59 329.28 249.876C327.904 250.848 328.384 253.226 328.896 254.868C324.96 254.064 322.816 255.973 324.128 260.161C325.184 263.511 328.544 268.167 328.544 270.546C328.32 270.211 327.776 269.273 327.648 269.105C324.413 266.513 320.384 265.249 316.32 265.554C312.352 265.554 309.12 269.775 306.496 271.752C309.024 263.444 304.448 258.62 293.056 269.842C293.308 269.087 293.385 268.28 293.279 267.487C293.173 266.695 292.888 265.94 292.448 265.286C289.248 261.936 281.568 269.373 278.464 271.316C278.464 269.943 279.456 267.062 276.576 265.554C271.936 263.109 268.64 268.067 265.792 272.254C264.704 267.598 259.072 266.559 254.816 268.335C252.32 269.646 250.375 271.875 249.353 274.596C248.331 277.316 248.305 280.336 249.28 283.075C244.512 280.462 238.848 278.753 238.624 284.381C238.613 285.815 238.775 287.244 239.104 288.636C236.864 287.162 233.408 285.286 231.04 286.525C226.56 288.904 227.84 293.694 230.4 298.183C202.4 298.183 33.6959 301.533 19.1999 302.371C18.9328 302.436 18.6947 302.594 18.5242 302.819C18.3538 303.044 18.261 303.323 18.261 303.61C18.261 303.898 18.3538 304.176 18.5242 304.401C18.6947 304.626 18.9328 304.784 19.1999 304.85C159.232 303.041 411.712 301.5 413.024 302.27C435.424 318.551 394.144 361.733 365.536 368.366C356.559 361.681 347.244 355.508 337.632 349.874C336.832 349.438 336.672 350.845 336.544 351.783C336.416 352.721 336.288 353.726 336.16 355.133C327.921 346.135 318.155 338.819 307.36 333.559C286.048 324.112 272.16 331.717 260.16 351.951C255.007 361.212 250.72 370.972 247.36 381.096C244.462 390.025 242.005 399.104 240 408.298C234.849 409.388 229.56 409.57 224.352 408.834C212.384 407.259 195.04 402.502 191.488 403.742C184.64 406.154 178.976 412.05 171.872 414.529C160.506 418.642 148.459 420.288 136.465 419.366C124.471 418.444 112.783 414.975 102.112 409.169C98.9119 407.561 78.5599 414.261 73.9519 415.266C62.5599 417.678 33.5359 410.174 16.8959 397.176C16.7893 397.121 16.668 397.107 16.5525 397.136C16.437 397.164 16.3346 397.234 16.2628 397.333C16.191 397.432 16.1542 397.554 16.1588 397.678C16.1634 397.802 16.209 397.921 16.2879 398.013C33.1839 411.413 62.4319 419.118 74.2399 416.706C77.1199 416.103 99.1999 409.504 101.376 410.643C112.231 416.627 124.137 420.234 136.367 421.242C148.598 422.25 160.896 420.638 172.512 416.505C179.936 413.926 185.312 408.164 192.16 405.819C194.88 404.881 212.832 409.604 224.16 411.112C229.274 411.888 234.477 411.763 239.552 410.743C238.144 417.142 233.472 439.486 233.152 443.875C233.114 444.104 233.123 444.339 233.178 444.564C233.233 444.789 233.333 445 233.472 445.181C234.016 445.717 235.04 445.751 241.824 445.885C240.096 456.94 240.256 456.102 239.488 457.107C236.084 460.777 232.438 464.192 228.576 467.325C226.176 469.402 223.104 472.986 224.48 475.934C225.312 477.643 227.392 477.743 229.216 477.576C229.216 478.48 229.216 480.222 230.048 480.457C231.456 480.792 245.28 480.658 247.648 480.624L250.112 483.974C246.56 490.004 222.816 531.176 223.392 538.177C223.584 540.254 227.456 541.36 229.568 541.963C229.152 543.102 228.736 544.241 228.352 545.112C227.968 545.983 228.032 546.016 227.872 546.284C227.712 546.552 215.648 549.634 210.176 553.788C206.592 556.468 206.976 559.349 208.896 560.488C214.144 563.671 243.008 563.001 244.608 561.225C246.72 558.88 248.352 548.931 248.896 545.715C251.146 546.163 253.463 546.083 255.68 545.48C266.235 536.509 276.041 526.613 284.992 515.9C288.704 518.278 292.64 520.556 296.8 522.6C293.6 526.385 259.328 566.384 258.976 569.299C258.496 572.95 268.576 577.004 271.552 575.094C272.448 574.491 274.752 571.744 310.688 528.563C317.372 530.932 324.248 532.659 331.232 533.722C342.288 535.386 353.439 536.259 364.608 536.335C377.216 543.571 392.448 552.247 402.176 557.741C364.096 607.053 365.92 604.474 365.92 605.412C365.92 607.187 368.448 608.996 369.888 609.934C371.328 610.872 374.08 612.279 375.584 611.442C377.792 610.169 411.904 566.317 413.6 564.14C431.84 574.19 447.328 582.699 451.424 584.809C452.736 585.513 453.824 584.139 454.624 582.833C455.602 581.148 456.437 579.377 457.12 577.54C457.211 577.257 457.207 576.949 457.108 576.669C457.009 576.388 456.821 576.152 456.576 575.999L420.704 555.061L442.688 526.988L550.4 589.6C550.665 589.72 550.959 589.755 551.243 589.701C551.528 589.648 551.791 589.508 552 589.298C553.985 586.55 555.62 583.544 556.864 580.354C557.248 579.114 556.608 578.679 555.808 578.143C555.648 578.143 492 540.556 450.944 516.436L473.696 487.291C479.196 487.532 484.681 486.518 489.769 484.32C494.858 482.122 499.43 478.792 503.168 474.561C503.488 478.447 503.712 481.529 503.872 483.673C503.9 483.788 503.964 483.89 504.054 483.963C504.144 484.036 504.254 484.076 504.368 484.076C504.482 484.076 504.592 484.036 504.682 483.963C504.772 483.89 504.836 483.788 504.864 483.673C504.672 480.323 504.448 476.973 504.224 473.422C512.576 463.372 515.936 448.464 516.064 435.098C519.422 434.441 522.735 433.557 525.984 432.451C526.111 432.451 526.233 432.398 526.323 432.304C526.413 432.21 526.464 432.082 526.464 431.949C526.464 431.816 526.413 431.688 526.323 431.594C526.233 431.499 526.111 431.446 525.984 431.446C522.871 431.488 519.767 431.802 516.704 432.384C529.952 415.4 552.992 385.484 556.896 380.258C566.496 438.95 567.136 483.472 568.352 487.458C568.352 488.162 569.312 488.698 569.312 487.023C569.326 486.934 569.326 486.844 569.312 486.755C567.744 469.603 566.656 430.307 558.528 378.114C586.912 340.695 585.664 341.733 585.024 340.661C583.744 338.618 578.624 336.842 575.04 336.708C574.688 336.708 575.328 336.005 566.976 346.758C563.552 345.82 558.496 344.748 552.448 343.609C549.824 330.209 546.88 317.044 543.488 303.409C614.176 305.151 610.368 305.453 610.912 304.515L614.4 304.85C614.475 304.87 614.555 304.872 614.631 304.855C614.707 304.839 614.779 304.804 614.841 304.754C614.902 304.704 614.952 304.64 614.987 304.566C615.021 304.493 615.039 304.412 615.039 304.331C615.039 304.249 615.021 304.168 614.987 304.095C614.952 304.022 614.902 303.957 614.841 303.907C614.779 303.857 614.707 303.822 614.631 303.806C614.555 303.789 614.475 303.791 614.4 303.811L610.88 303.476C611.04 298.619 610.368 293.728 605.984 292.053C608.704 290.646 613.152 288.703 611.328 285.118C609.504 281.534 604.928 285.353 603.104 285.118C602.784 282.907 606.304 275.772 599.904 274.097C597.564 274.08 595.225 274.192 592.896 274.432C594.08 272.187 596.416 268.201 596.096 265.755C595.808 264.181 594.528 262.941 591.04 263.846C590.336 264.047 587.84 265.085 586.08 265.554C586.436 265.008 586.737 264.425 586.976 263.812C587.584 260.776 587.057 257.611 585.504 254.968C581.792 249.173 576.384 253.628 571.872 255.806C572.713 254.275 573.175 252.547 573.216 250.781C573.056 247.632 569.664 246.895 566.816 247.766C564.464 248.694 562.185 249.814 560 251.116C560.933 249.745 561.339 248.057 561.137 246.388C560.936 244.718 560.141 243.189 558.912 242.104C556.96 240.764 552.032 242.104 549.792 243.009C552.992 237.046 551.84 231.92 549.216 229.173C546.592 226.426 540.544 228.838 537.856 228.57C538.533 227.591 539.122 226.548 539.616 225.455C540.223 222.462 539.696 219.338 538.144 216.745C537.805 216.184 537.331 215.728 536.768 215.422C536.206 215.116 535.577 214.971 534.944 215.003C531.744 215.003 526.272 219.425 525.344 218.353C524.416 217.281 525.344 213.462 522.144 211.653C518.944 209.844 515.2 211.05 515.2 216.845C509.728 203.445 504.416 192.256 499.648 183.01C530.88 192.055 528.64 191.62 529.216 190.95ZM243.2 559.45C239.616 560.321 213.312 560.488 209.824 558.043C208.608 554.961 226.208 548.998 228.448 547.758C229.376 547.222 230.272 543.906 230.752 542.197C236.318 543.705 241.973 544.824 247.68 545.547C246.944 547.959 244.672 557.507 243.2 559.45ZM489.024 108.875C509.664 82.8789 530.88 61.3384 562.4 55.6099C578.08 52.7624 590.208 53.1309 598.496 67.4019C594.24 69.8139 576.992 77.4519 572.512 79.2609L563.168 81.1369C562.894 81.1969 562.647 81.3519 562.467 81.5767C562.287 81.8015 562.184 82.0832 562.176 82.3764V92.2589L513.024 127.3C503.84 126.194 504.128 126.094 503.712 126.496C503.296 126.898 503.392 126.496 504.224 136.546C502.048 137.886 491.936 144.016 484.448 148.673C476.352 150.348 478.208 150.147 476.736 149.979C476.8 135.775 480.32 119.829 489.024 108.875ZM381.248 146.562C380.905 142.828 380.098 139.157 378.848 135.641C378.772 135.486 378.664 135.351 378.531 135.246C378.398 135.142 378.243 135.071 378.08 135.038C377.344 135.038 376.768 135.541 376.16 136.144C374.112 138.187 369.76 143.346 368.416 144.753L323.296 146.495C323.008 144.988 322.208 141.068 321.728 139.594C321.672 139.41 321.578 139.242 321.451 139.102C321.324 138.962 321.168 138.854 320.995 138.786C320.823 138.718 320.638 138.693 320.454 138.711C320.271 138.729 320.093 138.79 319.936 138.891C318.944 139.427 312.96 144.418 312.064 145.155C303.776 145.423 263.584 146.529 255.392 145.49C262.639 130.46 273.406 117.598 286.688 108.104C315.456 87.0999 387.2 87.0999 419.584 100.5C442.24 109.88 463.712 117.451 476.16 140.063C475.815 143.323 475.644 146.6 475.648 149.879C472.608 149.644 474.72 150.381 469.6 146.763C440.8 126.429 375.392 105.123 342.304 115.374C342.179 115.413 342.073 115.501 342.007 115.619C341.942 115.737 341.922 115.877 341.952 116.01C342.464 117.92 352.864 109.679 394.816 119.092C418.912 124.452 451.232 136.11 470.752 149.644C455.872 149.41 444.704 153.698 425.088 160.029C415.328 157.751 390.72 149.711 381.248 146.562ZM354.24 213.294C375.68 181.168 396.8 170.85 432.864 159.393C444.032 155.808 456.32 150.951 468.064 150.884C471.807 150.714 475.557 150.916 479.264 151.487C479.264 151.487 479.84 151.487 479.744 151.688C480.237 156.89 479.409 162.137 477.344 166.897C474.502 174.218 470.642 181.059 465.888 187.198C453.44 203.948 448.192 210.246 430.912 221.837C429.088 221.435 422.272 219.425 420.544 218.889C420.387 218.844 420.222 218.836 420.062 218.866C419.902 218.896 419.75 218.963 419.618 219.063C419.486 219.163 419.377 219.292 419.299 219.442C419.221 219.591 419.176 219.757 419.168 219.927L418.24 234.5C406.496 239.491 383.584 250.178 374.176 258.955C370.976 251.082 370.624 246.794 368.704 246.794C367.488 246.794 367.488 246.995 363.744 262.941C358.912 265.32 338.688 275.169 333.376 275.973C331.744 270.881 339.2 235.639 354.24 213.294ZM475.008 205.991C471.808 204.383 466.912 207.063 464 208.906C465.28 206.527 467.2 202.574 464.704 201.335C461.734 200.549 458.589 201.006 455.936 202.608C459.296 198.554 462.72 193.965 466.976 188.136C470.543 183.319 473.631 178.133 476.192 172.659C476.8 180.062 477.984 193.73 479.552 211.385C477.923 211.433 476.325 211.868 474.88 212.658C475.84 211.05 478.272 207.7 475.008 205.991ZM232.896 298.15C230.624 294.8 228.416 290.344 231.904 288.502C232.98 288.195 234.128 288.339 235.104 288.904C236.923 289.801 238.632 290.926 240.192 292.254C240.372 292.395 240.591 292.472 240.816 292.473C241.041 292.475 241.261 292.401 241.443 292.263C241.626 292.124 241.761 291.928 241.829 291.704C241.898 291.479 241.896 291.238 241.824 291.014C240.976 288.71 240.606 286.244 240.736 283.778C240.736 283.443 240.736 283.175 241.152 283.075C242.323 282.826 243.539 282.955 244.64 283.443C246.557 284.154 248.392 285.087 250.112 286.224C250.277 286.324 250.465 286.376 250.656 286.376C250.847 286.376 251.035 286.324 251.2 286.224C252.832 285.118 249.408 281.065 251.2 275.47C251.518 274.341 252.07 273.3 252.817 272.42C253.564 271.539 254.487 270.842 255.52 270.378C259.136 268.871 263.968 269.708 264 274.097V275.035C263.996 275.239 264.051 275.439 264.158 275.609C264.266 275.779 264.42 275.911 264.6 275.987C264.781 276.064 264.979 276.081 265.169 276.036C265.359 275.992 265.532 275.888 265.664 275.738C268.064 273.226 271.424 265.286 275.712 267.497C277.024 268.201 276.64 269.373 276.544 270.847C276.448 272.321 276.96 273.929 278.24 273.762C280.288 273.494 292.48 261.233 291.328 269.038C291.068 270.495 290.638 271.913 290.048 273.259C289.979 273.464 289.977 273.687 290.043 273.893C290.109 274.099 290.239 274.275 290.412 274.395C290.585 274.514 290.791 274.57 290.998 274.552C291.204 274.535 291.4 274.445 291.552 274.298C294.208 271.182 302.336 263.142 304.96 265.889C305.76 266.727 305.152 270.278 304.768 271.484C304.532 271.905 304.253 272.298 303.936 272.656C303.36 273.561 303.648 274.566 304.704 274.566C308.256 274.566 311.968 267.531 316.288 267.531C319.902 267.26 323.493 268.327 326.432 270.546C326.752 270.881 328.096 274.231 329.376 272.857C331.776 270.378 328.096 265.42 326.176 261.568C325.504 260.161 324.384 257.447 325.792 256.811C326.997 256.462 328.277 256.532 329.44 257.012C330.016 258.251 331.04 260.362 332.128 259.357C333.216 258.352 332.896 256.878 330.592 255.739C330.284 254.969 330.038 254.173 329.856 253.36C329.856 252.891 329.6 251.685 329.856 251.417C331.473 250.398 333.348 249.919 335.232 250.044C333.792 254.801 328.256 274.566 331.584 278.083C332.029 278.476 332.604 278.668 333.184 278.619C337.92 278.385 360.864 267.162 365.184 265.219C366.08 264.784 365.568 264.985 368.832 251.819C371.808 259.993 372.224 262.305 373.728 262.338C375.232 262.372 374.464 259.759 391.584 250.178C404.768 242.808 419.616 236.51 419.616 236.51C419.816 236.43 419.99 236.294 420.12 236.117C420.25 235.939 420.33 235.727 420.352 235.505L421.024 221.703C430.624 224.416 430.944 224.517 431.488 224.148C439.506 218.97 446.87 212.757 453.408 205.656C456.608 203.78 461.568 201.569 464 202.842C465.632 203.713 462.304 209.542 461.056 211.15C460.98 211.291 460.95 211.453 460.97 211.613C460.991 211.773 461.061 211.922 461.17 212.036C461.279 212.15 461.421 212.224 461.574 212.245C461.726 212.267 461.882 212.235 462.016 212.155C463.584 210.949 470.976 205.857 474.24 207.566C477.504 209.274 470.88 213.763 472.896 215.17C473.504 215.572 474.272 215.003 474.944 214.534C476.338 213.66 477.927 213.187 479.552 213.16C481.408 233.595 483.712 259.156 486.176 286.391C480.781 287.796 475.829 290.648 471.808 294.666C466.676 294.179 461.509 295.031 456.768 297.145C455.104 297.882 455.488 299.523 457.152 299.49C456.768 299.49 458.112 299.49 460.352 300.093C461.184 299.825 284.16 298.317 232.896 298.15ZM477.152 368.835C477.152 368.835 478.208 369.404 479.584 370.242C473.824 374.262 461.152 381.464 459.968 383.91C459.822 384.261 459.793 384.654 459.886 385.024C459.979 385.395 460.188 385.722 460.48 385.953C461.28 386.891 461.088 386.188 460.96 387.494V393.29C460.641 396.292 460.04 399.254 459.168 402.134C457.706 402.502 456.171 402.373 454.784 401.765C446.944 398.181 442.464 392.184 443.296 383.206C447.264 383.809 449.536 384.513 450.304 384.58C451.072 384.647 453.152 383.173 450.72 382.201C449.248 381.632 449.312 363.24 451.2 364.111C451.316 364.136 451.437 364.117 451.541 364.058C451.646 364 451.727 363.905 451.773 363.791C451.818 363.676 451.824 363.549 451.789 363.43C451.755 363.311 451.682 363.209 451.584 363.14C454.784 358.048 454.784 358.148 454.784 357.445C454.74 357.274 454.659 357.116 454.548 356.983C454.437 356.849 454.299 356.744 454.144 356.674C452.931 355.989 451.908 354.988 451.173 353.767C450.439 352.546 450.018 351.147 449.952 349.706C449.798 347.535 450.036 345.353 450.656 343.274C451.878 343.872 453.219 344.154 454.567 344.096C455.915 344.037 457.229 343.641 458.4 342.939C457.728 344.38 456.992 346.088 457.952 347.294C458.697 348.099 459.675 348.623 460.733 348.787C461.792 348.95 462.873 348.744 463.808 348.199C463.867 348.175 463.92 348.139 463.966 348.093C464.011 348.047 464.048 347.992 464.073 347.931C464.098 347.871 464.112 347.805 464.113 347.739C464.114 347.673 464.103 347.607 464.08 347.546C464.057 347.484 464.022 347.428 463.978 347.38C463.935 347.333 463.882 347.294 463.824 347.268C463.766 347.242 463.704 347.227 463.641 347.226C463.578 347.225 463.515 347.237 463.456 347.261C462.162 347.313 460.896 346.859 459.904 345.988C460.795 343.667 461.865 341.426 463.104 339.288C466.528 341.063 466.304 339.288 465.92 341.097C464.992 349.472 474.112 352.152 479.648 346.591C480.566 345.58 481.361 344.455 482.016 343.241C482.934 343.437 483.885 343.368 484.768 343.04C486.528 344.212 486.304 343.542 486.208 344.547C486.145 345.022 486.2 345.506 486.368 345.953C486.536 346.399 486.812 346.792 487.168 347.093C487.234 347.481 487.234 347.878 487.168 348.266C482.432 351.046 482.72 349.405 481.92 351.917C480.224 352.855 480.288 354.765 479.872 356.473C479.68 357.244 477.632 364.848 476.832 367.595C476.767 367.807 476.763 368.034 476.819 368.249C476.876 368.463 476.992 368.655 477.152 368.801V368.835ZM462.336 387.796C464.104 389.152 465.352 391.124 465.856 393.357C466.304 395.702 465.856 396.271 466.304 397.075C466.46 397.326 466.682 397.524 466.944 397.645C465.148 399.258 463.131 400.579 460.96 401.564C461.626 398.913 462.107 396.215 462.4 393.491C462.528 392.285 462.24 389.772 462.336 387.762V387.796ZM462.336 384.446C465.92 381.096 480.48 371.682 482.272 369.136C484.544 370.577 487.968 372.788 490.112 374.396C483.712 379.756 475.424 386.657 468.256 393.658C467.808 389.035 465.44 387.528 462.464 384.546L462.336 384.446ZM394.464 450.575C404.004 450.12 413.513 449.102 422.944 447.526C427.136 455.268 432.338 462.36 438.4 468.598C444.723 474.702 451.913 479.742 459.712 483.539C455.008 492.249 447.264 503.94 439.36 509.602L417.792 496.972C415.584 489.167 414.784 482.266 412.384 474.728C410.98 469.56 408.206 464.914 404.384 461.328C401.6 458.246 394.784 451.278 394.336 450.642C393.888 450.005 394.304 450.742 394.464 450.575ZM422.208 445.114C415.36 446.186 396.928 448.464 390.592 447.895C391.857 435.11 392.338 422.253 392.032 409.403C396.832 413.725 403.328 419.453 409.568 425.215C406.892 426.081 404.57 427.863 402.976 430.274C402.776 430.697 402.671 431.162 402.67 431.634C402.668 432.106 402.77 432.572 402.968 432.996C403.166 433.42 403.454 433.791 403.811 434.079C404.167 434.368 404.582 434.568 405.024 434.662C405.48 434.731 405.944 434.731 406.4 434.662C406.263 435.14 406.229 435.643 406.301 436.135C406.373 436.628 406.549 437.098 406.816 437.51C407.286 438.281 407.966 438.888 408.768 439.252C409.117 439.32 409.475 439.32 409.824 439.252C409.745 439.582 409.745 439.927 409.824 440.257C410.464 445.751 415.616 442.836 420.544 440.994C422.976 440.123 422.944 440.257 424.448 441.53L422.208 445.114ZM448.064 381.464C444.498 380.513 440.832 380.04 437.152 380.057C435.68 380.057 435.84 380.426 435.904 380.057C436.448 375.635 438.592 363.307 441.472 359.957L450.112 363.307C448 366.021 447.072 376.875 448 381.598L448.064 381.464ZM448.064 361.364C447.04 360.828 442.496 358.517 441.664 358.014C440.832 357.512 440.48 358.014 439.808 358.919L438.752 358.718L447.584 348.467C447.523 350.175 447.83 351.875 448.484 353.441C449.138 355.007 450.121 356.399 451.36 357.512L448.064 361.364ZM438.752 360.225C436.744 363.992 435.339 368.077 434.592 372.319C433.853 375.626 433.339 378.985 433.056 382.369C433.047 382.542 433.072 382.714 433.129 382.877C433.187 383.039 433.275 383.187 433.389 383.313C433.502 383.438 433.639 383.538 433.791 383.606C433.943 383.674 434.107 383.709 434.272 383.709C436.238 382.629 438.512 382.331 440.672 382.871C440.291 386.287 440.754 389.747 442.016 392.921C431.985 403.626 421.421 413.769 410.368 423.306L391.84 407.594C391.84 403.641 391.84 400.023 391.584 397.109C391.296 389.538 391.104 389.471 390.208 388.399C387.733 385.787 385.069 383.379 382.24 381.196C398.144 371.247 420 357.545 438.912 360.292L438.752 360.225ZM422.592 438.85C420.448 438.85 415.328 441.429 412.608 441.362C412.032 441.362 411.872 440.625 411.84 440.022C413.856 437.476 419.296 436.672 419.296 434.629C419.296 434.629 418.752 432.987 417.536 433.557C414.943 434.91 412.246 436.031 409.472 436.907C409.23 436.7 409.024 436.451 408.864 436.17C408.608 435.667 408.864 435.567 408.864 435.433C411.259 433.727 413.878 432.396 416.64 431.48C416.903 431.326 417.104 431.078 417.206 430.781C417.308 430.485 417.304 430.16 417.194 429.866C417.085 429.572 416.878 429.329 416.612 429.183C416.345 429.036 416.037 428.995 415.744 429.068C412.224 430.307 412.096 430.776 409.344 431.614C408.48 431.848 405.44 432.786 405.056 431.949C404.672 431.111 406.784 429.436 407.68 428.9C411.24 426.785 415.211 425.536 419.296 425.249C422.88 425.249 423.232 425.483 430.72 431.044L425.056 440.424C424.403 439.654 423.545 439.105 422.592 438.85ZM423.904 424.009C420.519 422.891 416.888 422.891 413.504 424.009C423.881 414.891 433.723 405.124 442.976 394.764C445.482 399.052 449.274 402.351 453.76 404.144C455.13 404.763 456.623 405.028 458.112 404.914C453.344 415.835 439.424 421.932 436.192 427.326L434.88 426.488C434.624 426.324 434.317 426.27 434.024 426.339C433.731 426.408 433.476 426.594 433.312 426.857L431.456 429.939C428.608 427.527 425.088 424.713 423.904 424.043V424.009ZM481.504 329.405C481.504 330.544 480.64 331.281 480.672 332.755C480.665 333.31 480.767 333.861 480.971 334.374C481.174 334.886 481.475 335.35 481.856 335.737C482.325 336.122 482.829 336.459 483.36 336.742C483.604 336.831 483.823 336.98 484 337.177C483.563 338.249 483.262 339.375 483.104 340.527H482.848C483.392 338.752 483.072 337.177 481.984 336.641C477.771 334.622 473.122 333.813 468.512 334.296C467.68 334.296 466.656 337.077 466.368 338.015C465.373 337.376 464.295 336.891 463.168 336.574C463.744 334.966 463.52 333.626 462.56 332.956C460.193 331.496 457.55 330.593 454.816 330.31L455.488 328.501C456.291 328.139 456.971 327.532 457.44 326.759C458.176 325.72 459.456 323.107 459.872 323.409C460.832 323.71 461.92 325.62 464.384 323.61C465.23 322.772 466.011 321.864 466.72 320.896C467.688 321.551 468.692 322.144 469.728 322.672C471.744 323.141 473.184 321.164 474.016 320.863C474.432 321.399 475.136 322.404 475.328 322.605C475.854 323.011 476.463 323.285 477.106 323.407C477.749 323.529 478.411 323.495 479.04 323.308C478.4 326.591 480 327.127 481.472 329.439L481.504 329.405ZM486.848 306.357C480.63 303.588 474.209 301.348 467.648 299.657C466.336 299.356 457.28 298.284 456.96 298.217L457.344 297.982C462.673 295.804 468.506 295.36 474.08 296.709C485.76 300.059 505.12 309.506 511.84 320.159C514.214 323.523 516.121 327.223 517.504 331.147C514.396 328.419 511.486 325.452 508.8 322.27C502.671 315.356 495.166 309.935 486.816 306.391L486.848 306.357ZM511.68 310.511C511.68 312.019 511.328 313.493 511.168 314.967C503.072 305.62 483.744 296.642 473.408 294.599C484.704 285.219 497.312 285.922 504.736 292.22C507.185 294.489 509.087 297.332 510.288 300.516C511.489 303.7 511.955 307.136 511.648 310.545L511.68 310.511ZM416.384 301.835C464.096 301.835 459.808 301.835 459.456 302.17H457.92C456.102 302.582 454.468 303.62 453.28 305.118C451.584 307.865 452.064 307.764 452.224 310.042C451.615 310.63 451.077 311.294 450.624 312.019C450.074 312.887 449.765 313.897 449.731 314.938C449.697 315.979 449.94 317.01 450.432 317.915C450.144 318.652 449.536 319.389 449.28 320.193C449.129 320.59 449.088 321.024 449.162 321.445C449.235 321.865 449.42 322.256 449.696 322.571C449.918 322.758 450.153 322.926 450.4 323.074C450.514 323.124 450.613 323.205 450.688 323.308C450.528 323.978 450.112 324.481 449.984 325.151C449.937 325.63 450.01 326.113 450.195 326.553C450.38 326.993 450.671 327.376 451.04 327.663C451.74 328.209 452.491 328.68 453.28 329.07L452.896 330.142H450.56C449.92 330.142 448.992 331.817 448.704 332.42C447.818 333.809 447.345 335.441 447.345 337.11C447.345 338.78 447.818 340.412 448.704 341.8C448.204 343.289 447.85 344.826 447.648 346.39L436.864 358.718C427.705 358.337 418.574 360.004 410.08 363.609C399.706 368.007 389.744 373.401 380.32 379.722C376.448 376.64 371.968 373.223 368.064 370.376C396.352 362.336 436.768 320.896 416.384 301.835ZM337.6 351.046C348.096 356.909 382.944 383.273 388.48 389.806C389.088 390.576 389.152 389.806 389.408 397.243C389.792 408.834 389.888 435.6 388.224 446.957C387.296 446.186 338.4 405.953 335.584 403.809C335.392 398.65 336.64 356.54 337.6 351.046ZM226.88 474.996C226.656 474.996 226.496 474.996 226.4 474.795C226.304 474.594 226.4 473.455 226.848 472.752C228.64 469.402 232.736 467.157 238.432 461.194C239.771 459.934 240.859 458.408 241.632 456.705C242.048 455.03 242.752 447.928 242.944 445.918H261.536C260.482 451.78 259.146 457.583 257.536 463.305C252.992 465.65 231.936 476.169 226.88 474.996ZM252.48 479.284C249.728 479.284 232.672 479.686 230.08 479.284C229.966 478.631 229.966 477.961 230.08 477.308C236.447 475.778 242.638 473.531 248.544 470.608H258.144C256.224 473.288 254.4 476.236 252.576 479.284H252.48ZM276.288 444.277C269.895 452.06 264.055 460.323 258.816 469L250.976 469.167C255.232 467.09 258.4 465.348 258.816 465.147C259.162 464.915 259.43 464.575 259.584 464.176C261.083 458.115 262.216 451.961 262.976 445.751C267.008 445.751 268.448 445.751 268.832 444.679C269.856 442.334 288.544 405.685 291.552 399.889C292.576 399.889 290.56 398.08 305.856 418.917C321.088 414.696 334.88 414.462 355.744 423.172L362.848 429.068C349.408 422.736 334.848 417.644 319.968 418.515C313.691 418.861 307.468 419.916 301.408 421.664C291.744 427.091 283.936 435.768 276.384 444.277H276.288ZM286.56 513.856C298.016 500.724 307.904 488.363 316.064 479.72H333.088C320.992 493.957 308.896 508.262 298.336 520.757C294.327 518.679 290.428 516.375 286.656 513.856H286.56ZM270.24 572.85C267.014 572.955 263.874 571.756 261.472 569.5C264.992 563.57 302.848 518.982 336.192 479.519H348.992C280.832 560.656 271.104 572.28 270.24 572.85ZM312.352 526.519C323.904 512.617 337.344 496.537 351.488 479.619C356.032 479.619 359.2 479.82 360.448 480.021C370.496 499.451 392.224 506.821 413.088 509.702L430.208 519.752C420.653 525.299 410.299 529.18 399.552 531.243C371.904 536.904 334.24 534.157 312.352 526.519ZM430.752 520.69L409.344 548.395L386.4 534.995C401.966 533.472 417.065 528.602 430.752 520.69ZM368 536.268C373.536 536.268 378.688 535.866 383.52 535.363L408 549.969L403.52 555.765L368 536.268ZM454.4 577.607C453.788 579.226 452.981 580.757 452 582.163C449.248 580.722 433.12 571.912 415.168 562.063L419.392 556.703L454.4 577.607ZM374.4 609.03C372.178 608.425 370.161 607.184 368.576 605.445C368.768 605.144 397.376 567.992 433.344 521.427L440.768 525.749C394.432 584.407 376.576 607.12 374.4 609.03ZM554.304 580.119C553.295 582.449 552.107 584.69 550.752 586.819C541.152 581.928 368.352 479.619 361.312 477.911C357.792 476.973 320.384 477.911 316.288 477.911L323.712 469.938C327.584 469.938 363.808 469.938 366.752 470.742C376.352 473.69 553.12 580.119 554.272 580.119H554.304ZM449.056 515.263L441.6 510.975C449.536 504.845 457.056 493.455 461.856 484.51C464.815 485.707 467.897 486.539 471.04 486.989C471.488 487.023 472.416 485.75 449.024 515.263H449.056ZM508.8 461.965C505.673 469.044 500.619 475 494.272 479.083C475.072 491.344 456.928 482.433 439.872 466.688C433.854 460.467 428.695 453.398 424.544 445.684L434.496 429.101C464.288 447.56 461.216 445.114 468.8 449.704C469.408 450.039 470.08 450.407 471.68 451.379L475.04 453.489C477.344 454.896 476.736 455.231 477.44 455.265C478.688 455.265 477.44 452.719 475.488 450.977C472.999 449.096 470.26 447.607 467.36 446.555C473.264 436.004 479.739 425.815 486.752 416.036C486.833 415.93 486.869 415.794 486.854 415.659C486.839 415.524 486.774 415.401 486.672 415.316C486.57 415.232 486.44 415.193 486.311 415.209C486.182 415.225 486.064 415.293 485.984 415.4C478.688 425.087 471.935 435.21 465.76 445.717C461.824 443.674 441.504 430.743 437.728 428.331C440.704 423.272 455.296 416.706 459.84 404.546C467.168 402.67 474.688 393.424 479.04 387.025L491.2 375.836C497.215 380.217 502.034 386.163 505.184 393.089C510.673 405.727 513.635 419.408 513.888 433.289C514.428 443.137 512.682 452.976 508.8 461.965ZM575.04 337.713C577.536 337.713 583.008 339.489 583.904 341.298C584.128 341.666 578.816 349.706 515.968 430.106C515.739 425.502 515.182 420.923 514.304 416.405C547.84 372.989 574.112 338.919 575.072 337.713H575.04ZM565.44 348.299C554.848 361.699 535.936 385.752 513.824 413.926C512.156 406.543 509.798 399.351 506.784 392.452C503.488 385.431 498.517 379.42 492.352 374.999C492.483 374.796 492.536 374.548 492.501 374.306C492.465 374.064 492.343 373.845 492.16 373.692C489.6 371.917 485.056 369.505 482.56 368.064C482.492 368.026 482.416 368.005 482.339 368.004C482.262 368.002 482.185 368.02 482.116 368.056C482.047 368.093 481.987 368.146 481.942 368.211C481.897 368.277 481.867 368.353 481.856 368.433L479.296 366.959L481.376 360.259C482.133 360.812 483.011 361.155 483.93 361.254C484.848 361.354 485.775 361.207 486.624 360.828C487.011 360.536 487.356 360.186 487.648 359.79C488.548 360.369 489.572 360.706 490.628 360.771C491.683 360.835 492.737 360.625 493.696 360.158C495.044 359.263 496.147 358.016 496.896 356.54C497.6 355.468 497.728 355.267 499.584 355.301C501.379 355.595 503.214 355.151 504.704 354.061C506.362 352.265 507.281 349.859 507.264 347.361C508.904 346.657 510.295 345.439 511.246 343.873C512.198 342.307 512.662 340.471 512.576 338.618C524.48 340.46 553.6 345.05 565.44 348.4V348.299ZM517.44 213.897C518.112 212.256 519.616 212.725 521.152 213.529C522.688 214.333 522.72 215.807 522.976 217.482C524.384 226.091 533.728 213.663 536.416 217.917C537.652 220.068 538.074 222.626 537.6 225.086C536.977 226.249 536.282 227.368 535.52 228.436C535.382 228.611 535.307 228.83 535.307 229.056C535.307 229.282 535.382 229.502 535.52 229.676C538.016 232.289 544.928 227.867 547.552 230.647C548.607 231.971 549.274 233.587 549.473 235.298C549.672 237.01 549.393 238.745 548.672 240.295C547.744 242.741 545.664 244.885 546.176 246.024C546.688 247.163 547.296 246.861 548.032 246.024C548.768 245.186 556.224 242.908 557.632 243.813C558.029 244.15 558.352 244.573 558.578 245.053C558.804 245.533 558.929 246.058 558.944 246.593C559.232 249.541 557.728 250.211 556.864 251.518C556 252.824 556.512 253.829 557.728 253.829C561.76 253.829 566.656 247.9 570.528 249.977C571.52 250.513 570.528 253.695 569.696 254.968C568.864 256.241 568.16 256.71 568.48 257.682C569.12 259.625 572.704 257.682 574.432 256.71C577.984 254.734 581.28 252.657 583.52 256.174C584.732 258.298 585.154 260.814 584.704 263.243C584.544 263.913 583.008 265.789 582.88 266.593C582.624 268.033 584.256 268.234 585.6 267.966C588.384 267.43 593.664 264.616 593.76 266.358C593.76 268.804 589.984 274.365 589.984 275.738C590.016 276.052 590.158 276.343 590.382 276.553C590.607 276.764 590.898 276.879 591.2 276.877C591.52 276.877 598.848 276.241 599.296 276.375C604.32 277.681 599.104 284.348 601.472 286.827C603.008 288.468 605.76 286.827 608.096 286.056C608.352 286.056 609.152 285.788 609.28 286.056C610.144 287.899 605.728 289.406 603.936 290.445C602.144 291.483 602.208 293.426 603.36 293.795C603.912 293.878 604.472 293.878 605.024 293.795C608.224 294.9 608.672 298.719 608.576 302.237C604.064 302.002 542.624 299.825 542.4 299.825C535.655 273.064 527.199 246.807 517.088 221.234C516.808 218.785 516.927 216.304 517.44 213.897ZM546.016 324.447C539.396 325.23 532.824 326.416 526.336 327.998C524.48 328.501 522.848 329.07 521.504 329.506C521.377 329.533 521.265 329.611 521.193 329.724C521.121 329.837 521.094 329.976 521.12 330.109C521.145 330.242 521.22 330.359 521.328 330.435C521.436 330.51 521.569 330.538 521.696 330.511L524.704 330.276C530.044 329.757 535.339 328.816 540.544 327.462C542.474 326.893 544.375 326.222 546.24 325.452C547.563 331.147 548.821 336.988 550.016 342.973C544.736 342.035 518.848 337.981 512.096 337.01C512.055 336.405 511.831 335.83 511.456 335.368C512.209 333.825 512.789 332.194 513.184 330.511C514.346 331.768 515.634 332.891 517.024 333.861C518.464 334.497 520.608 333.291 519.68 329.807C518.042 325.573 515.891 321.576 513.28 317.915C513.44 315.603 513.824 313.325 514.08 310.913C514.545 306.096 513.561 301.247 511.266 297.043C508.972 292.839 505.48 289.49 501.28 287.463C497.423 285.947 493.283 285.385 489.184 285.822C488.416 277.748 487.648 269.44 486.848 261.333C488.152 261.349 489.456 261.282 490.752 261.132C497.216 260.294 503.584 258.779 509.76 256.61C509.887 256.583 509.999 256.505 510.071 256.392C510.143 256.279 510.169 256.14 510.144 256.007C510.118 255.874 510.043 255.756 509.935 255.681C509.827 255.606 509.695 255.578 509.568 255.605C501.836 256.265 494.191 257.758 486.752 260.06C481.44 204.718 479.36 188.973 478.304 167.734C479.533 164.395 480.35 160.905 480.736 157.349C485.638 164.884 489.92 172.841 493.536 181.134C493.76 181.603 493.984 181.536 496.384 182.24C518.72 224.45 535.072 276.341 546.016 324.514V324.447ZM494.816 179.895C490.943 171.263 486.27 163.05 480.864 155.373C480.946 154.052 480.882 152.725 480.672 151.42C480.623 151.258 480.536 151.111 480.418 150.994C480.301 150.877 480.157 150.793 480 150.75C489.376 148.874 513.792 144.318 523.392 145.155C565.696 148.773 594.656 160.532 617.056 197.817C624.192 209.643 621.664 230.446 616.32 240.965C615.814 242.006 615.167 242.965 614.4 243.813C610.88 240.463 592.992 220.363 589.664 216.812L588.288 204.651C588.26 204.463 588.193 204.284 588.092 204.125C587.991 203.967 587.858 203.833 587.703 203.735C587.547 203.636 587.373 203.573 587.192 203.552C587.011 203.531 586.828 203.552 586.656 203.613L577.056 207.499L542.304 192.591C537.856 180.062 538.176 180.364 537.376 180.196C536.576 180.029 536.96 179.928 528.288 189.174L494.816 179.895Z" fill="black"/>
</svg>
