<svg width="43" height="30" viewBox="0 0 43 30" fill="none" xmlns="http://www.w3.org/2000/svg">
<path d="M0 3.52594V2.5C0 1.83696 0.283147 1.20107 0.787151 0.732233C1.29115 0.263392 1.97473 0 2.6875 0L40.3125 0C41.0253 0 41.7088 0.263392 42.2128 0.732233C42.7169 1.20107 43 1.83696 43 2.5V3.52594L21.5 16.0259L0 3.52594ZM22.2122 18.5603C21.9986 18.6843 21.7518 18.7501 21.5 18.7501C21.2482 18.7501 21.0014 18.6843 20.7878 18.5603L0 6.47406V27.5C0 28.163 0.283147 28.7989 0.787151 29.2678C1.29115 29.7366 1.97473 30 2.6875 30H40.3125C41.0253 30 41.7088 29.7366 42.2128 29.2678C42.7169 28.7989 43 28.163 43 27.5V6.47406L22.2122 18.5603Z" fill="black"/>
</svg>
