<svg width="47" height="35" viewBox="0 0 47 35" fill="none" xmlns="http://www.w3.org/2000/svg">
<path d="M47 4.19324C45.2336 4.89425 43.3656 5.35766 41.454 5.56905C43.4707 4.46694 44.982 2.73311 45.7075 0.689199C43.8124 1.7212 41.7378 2.4483 39.574 2.83891C38.1277 1.40413 36.2017 0.449068 34.0981 0.123505C31.9944 -0.202059 29.8322 0.120295 27.9504 1.04001C26.0686 1.95972 24.5738 3.42478 23.7003 5.2054C22.8268 6.98602 22.6241 8.98149 23.124 10.8788C19.2922 10.7016 15.5439 9.78884 12.1228 8.20001C8.70174 6.61117 5.68429 4.38175 3.2665 1.65657C2.41847 3.01125 1.97287 4.54541 1.974 6.10648C1.97099 7.55621 2.35991 8.98413 3.10612 10.2631C3.85234 11.5421 4.93269 12.6324 6.251 13.437C4.71875 13.3989 3.21923 13.0228 1.88 12.3407V12.4481C1.89148 14.4794 2.66959 16.4447 4.08269 18.0115C5.49579 19.5784 7.45715 20.6507 9.635 21.047C8.79665 21.2804 7.92626 21.4034 7.05 21.4125C6.44344 21.406 5.83839 21.3557 5.2405 21.262C5.86069 23.0093 7.06086 24.5363 8.67403 25.6305C10.2872 26.7248 12.2331 27.3318 14.241 27.3672C10.8504 29.8077 6.66433 31.1396 2.35 31.1507C1.56448 31.153 0.779579 31.1099 0 31.0217C4.40491 33.6234 9.53821 35.0045 14.7815 34.9987C18.3998 35.033 21.9893 34.4075 25.3403 33.1587C28.6914 31.9098 31.7368 30.0627 34.2987 27.7251C36.8607 25.3875 38.8877 22.6064 40.2615 19.5441C41.6353 16.4819 42.3283 13.2 42.3 9.88998C42.3 9.52453 42.3 9.13758 42.3 8.75063C44.144 7.49264 45.7345 5.95047 47 4.19324Z" fill="black"/>
</svg>
